<svg id="svg2" xmlns="http://www.w3.org/2000/svg" xmlns:xlink="http://www.w3.org/1999/xlink" viewBox="0 0 210.89 212.53"><defs><style>.cls-1{fill:url(#linear-gradient);}</style><linearGradient id="linear-gradient" x1="-750.77" y1="20.99" x2="-710.77" y2="80.99" gradientTransform="matrix(1, 0, 0, -1, 800, 198.29)" gradientUnits="userSpaceOnUse"><stop offset="0" stop-color="#e2e2e2"/><stop offset="1" stop-color="#fff"/></linearGradient></defs><g id="layer1"><g id="g5990"><g id="g6998-9-1-0"><path id="path5853-9-1-1-0-7-1-8-59" class="cls-1" d="M20,101.14l30,30-10-50v-20l-20-20,10-20,10-10,20,20-10,10,20,20-10,10,20,20,10-10-10-60,20-20,20,20v30h10l10-30,10-10,20,20v10l-20,20v30l-10,10,10,10,20-20v-10l20-20,20,20-20,20v20l-20,20v40l-30,30H70l-30-30H50l-20-20H40l-40-40Z"/><rect id="rect5811-6-2-4-9-3-4-1-28" x="30" y="11.14" width="20" height="10"/><rect id="rect5815-1-4-9-6-8-2-0-9" x="80" y="11.14" width="10" height="100"/><rect id="rect5817-3-5-4-1-2-7-6-58" x="90" y="1.14" width="20" height="10"/><rect id="rect5819-1-4-3-0-7-3-0-8" x="110" y="11.14" width="10" height="100"/><rect id="rect5821-3-6-8-4-0-2-4-5" x="140" y="11.14" width="20" height="10"/><rect id="rect5823-4-0-6-4-1-9-3-1" x="150" y="81.14" width="10" height="10"/><rect id="rect5825-6-1-9-7-7-5-2-5" x="140" y="91.14" width="10" height="30"/><rect id="rect5827-4-6-7-6-2-4-4-3" x="160" y="81.14" width="10" height="20"/><rect id="rect5829-0-0-0-4-3-6-2-8" x="170" y="131.14" width="10" height="40"/><rect id="rect5831-5-0-4-4-1-6-2-8" x="40" y="81.14" width="10" height="40"/><rect id="rect6056-5-2-9-5-7-2" x="30" y="51.14" width="10" height="30"/><rect id="rect6058-1-4-6-2-0-9" x="20" y="21.14" width="10" height="30"/><rect id="rect6060-0-2-9-1-0-8" x="50" y="21.14" width="10" height="30"/><rect id="rect6062-9-8-4-2-9-4" x="60" y="51.14" width="10" height="30"/><rect id="rect6064-6-2-8-9-7-6" x="70" y="81.14" width="10" height="20"/><rect id="rect6171-8-7-9-9-9" x="130" y="21.14" width="10" height="30"/><rect id="rect6173-7-7-6-5-5" x="120" y="51.14" width="10" height="30"/><rect id="rect6175-4-8-1-0-2" x="160" y="21.14" width="10" height="30"/><rect id="rect6177-3-7-0-9-45" x="150" y="51.14" width="10" height="30"/><rect id="rect6294-2-7-7-3" x="180" y="111.14" width="10" height="20"/><rect id="rect6296-9-5-6-9" x="190" y="91.14" width="10" height="20"/><rect id="rect6298-4-4-8-7" x="170" y="71.14" width="10" height="10"/><rect id="rect6300-3-6-4-4" x="180" y="61.14" width="20" height="10"/><rect id="rect6302-9-6-6-09" x="150" y="101.14" width="10" height="10"/><rect id="rect6306-2-8-9-6" x="200" y="71.14" width="10" height="20"/><rect id="rect5831-72-1-5-7-7" x="30" y="111.14" width="10" height="10"/><rect id="rect5833-45-1-1-0-1" y="101.14" width="30" height="10"/><rect id="rect5835-7-4-3-4-8" y="111.14" width="10" height="20"/><rect id="rect5837-3-2-1-8-7" x="10" y="131.14" width="10" height="10"/><rect id="rect5839-5-9-3-3-0" x="20" y="141.14" width="10" height="10"/><rect id="rect5841-0-4-4-4-4" x="30" y="151.14" width="10" height="20"/><rect id="rect6728-3-6-9-6" x="40" y="121.14" width="10" height="10"/><rect id="rect5843-6-1-8-5-3-0" x="40" y="171.14" width="10" height="20"/><rect id="rect5847-2-8-39-4-3-1" x="60" y="201.18" width="90" height="10"/><rect id="rect5851-6-9-3-1-2-9" x="160" y="171.14" width="10" height="20"/><rect id="rect6730-3-9-9-0-5" x="50" y="191.18" width="10" height="10"/><rect id="rect7152-1-2-3-6-4" x="150" y="191.18" width="10" height="10"/></g></g></g></svg>