<svg id="Layer_2" data-name="Layer 2" xmlns="http://www.w3.org/2000/svg" viewBox="0 0 850.77 436.89"><defs><style>.cls-1{fill:#fff;}.cls-2{fill:#231f20;}</style></defs><path class="cls-1" d="M850.77,188.43c-.7,0-1.41-.09-2.11-.09H789.42a17.45,17.45,0,0,0-1.77.06.93.93,0,0,0-.92.9,8.48,8.48,0,0,0-.06.88V433.33c0,.71,0,1.41,0,2.12,0,1.3-.17,1.43-1.4,1.47H711.35c-1-.05-1.19-.22-1.23-1.29,0-.71,0-1.41,0-2.12V192.12c0-.71,0-1.42,0-2.12a6.32,6.32,0,0,0-.27-1.1,5.2,5.2,0,0,0-2.37-.25H680.21c-.53,0-1.07,0-1.59,0a.78.78,0,0,1-.72-.68,4.05,4.05,0,0,1-.07-.7c0-.47,0-.94,0-1.41V113c0-.65,0-1.3,0-1.94a.87.87,0,0,1,.91-.9c.52,0,1.06,0,1.59,0q13.6,0,27.23,0a4.21,4.21,0,0,0,2.2-.28,10.71,10.71,0,0,0,.23-1.29c0-.65,0-1.3,0-2V3.1c0-.71,0-1.42,0-2.12s.31-.9,1-1c.41,0,.83,0,1.24,0h72.32c2,0,2,0,2,2V107.2c0,.65,0,1.3,0,1.94a.83.83,0,0,0,.8.8,11.1,11.1,0,0,0,1.41.07h60.3c.53,0,1-.07,1.58-.1Z"/><path class="cls-2" d="M708.57,188.63h.06l.31,0h-.06l-.31,0Zm79.08-.24Zm0,0h0Zm0,0h0Zm0,0Zm0,0Zm0,0h0Zm0,0Zm0,0Zm0,0Zm0,0Zm0,0Zm0,0Zm0-79.32-.9.06a.83.83,0,0,0,.8.8l.1-.86ZM711.87-5h0c-.33,0-.71,0-1.14,0A5.81,5.81,0,0,0,705.09.63C705,1.41,705,2.15,705,2.8v7.81a2.53,2.53,0,0,0,.5,1.5,2.48,2.48,0,0,0-.5,1.5v12a2.46,2.46,0,0,0,.5,1.5,2.42,2.42,0,0,0-.5,1.5v12a2.46,2.46,0,0,0,.5,1.5,2.42,2.42,0,0,0-.5,1.5v12a2.46,2.46,0,0,0,.5,1.5,2.42,2.42,0,0,0-.5,1.5v12a2.46,2.46,0,0,0,.5,1.5,2.42,2.42,0,0,0-.5,1.5v12a2.46,2.46,0,0,0,.5,1.5,2.42,2.42,0,0,0-.5,1.5v12a2.46,2.46,0,0,0,.5,1.5,2.42,2.42,0,0,0-.5,1.5v1.46h-1a2.53,2.53,0,0,0-1.5.5,2.47,2.47,0,0,0-1.49-.5H689a2.48,2.48,0,0,0-1.5.5,2.53,2.53,0,0,0-1.5-.5h-6.15c-.47,0-1,0-1.55.06a5.82,5.82,0,0,0-5.46,5.48c-.06.8-.06,1.54-.06,2.2v1.5a2.42,2.42,0,0,0,.5,1.5,2.46,2.46,0,0,0-.5,1.5v12a2.42,2.42,0,0,0,.5,1.5,2.46,2.46,0,0,0-.5,1.5v12a2.42,2.42,0,0,0,.5,1.5,2.46,2.46,0,0,0-.5,1.5v12a2.42,2.42,0,0,0,.5,1.5,2.46,2.46,0,0,0-.5,1.5v12a2.42,2.42,0,0,0,.5,1.5,2.46,2.46,0,0,0-.5,1.5V186c0,.46,0,.92,0,1.37a8.68,8.68,0,0,0,.17,1.57,5.79,5.79,0,0,0,5.19,4.65l.48,0h.14a2.5,2.5,0,0,1,3.13,0h12a2.45,2.45,0,0,0,1.5-.49,2.5,2.5,0,0,0,1.5.5h8.17V203a2.42,2.42,0,0,0,.5,1.5,2.46,2.46,0,0,0-.5,1.5v12a2.42,2.42,0,0,0,.5,1.5,2.46,2.46,0,0,0-.5,1.5v12a2.42,2.42,0,0,0,.5,1.5,2.46,2.46,0,0,0-.5,1.5v12a2.42,2.42,0,0,0,.5,1.5,2.46,2.46,0,0,0-.5,1.5v12a2.42,2.42,0,0,0,.5,1.5,2.46,2.46,0,0,0-.5,1.5v12a2.42,2.42,0,0,0,.5,1.5,2.46,2.46,0,0,0-.5,1.5v12a2.42,2.42,0,0,0,.5,1.5,2.46,2.46,0,0,0-.5,1.5v12a2.42,2.42,0,0,0,.5,1.5,2.46,2.46,0,0,0-.5,1.5v12a2.42,2.42,0,0,0,.5,1.5,2.46,2.46,0,0,0-.5,1.5v12a2.42,2.42,0,0,0,.5,1.5,2.46,2.46,0,0,0-.5,1.5v12a2.42,2.42,0,0,0,.5,1.5,2.46,2.46,0,0,0-.5,1.5v12a2.42,2.42,0,0,0,.5,1.5,2.46,2.46,0,0,0-.5,1.5v12a2.42,2.42,0,0,0,.5,1.5,2.46,2.46,0,0,0-.5,1.5v12a2.42,2.42,0,0,0,.5,1.5,2.46,2.46,0,0,0-.5,1.5v12a2.42,2.42,0,0,0,.5,1.5,2.46,2.46,0,0,0-.5,1.5v12a2.42,2.42,0,0,0,.5,1.5,2.46,2.46,0,0,0-.5,1.5v3.11c0,.55,0,1.13,0,1.75a5.86,5.86,0,0,0,6,6.1l.64,0h4.79a2.48,2.48,0,0,0,1.5-.5,2.53,2.53,0,0,0,1.5.5h12a2.48,2.48,0,0,0,1.5-.5,2.53,2.53,0,0,0,1.5.5h12a2.48,2.48,0,0,0,1.5-.5,2.53,2.53,0,0,0,1.5.5h12a2.48,2.48,0,0,0,1.5-.5,2.53,2.53,0,0,0,1.5.5h12a2.48,2.48,0,0,0,1.5-.5,2.53,2.53,0,0,0,1.5.5h5.86c3.87-.12,6.15-2.43,6.25-6.34,0-.55,0-1.11,0-1.67v-2.29a2.5,2.5,0,0,1,0-3v-12a2.5,2.5,0,0,1,0-3v-12a2.5,2.5,0,0,1,0-3v-12a2.5,2.5,0,0,1,0-3v-12a2.5,2.5,0,0,1,0-3v-12a2.5,2.5,0,0,1,0-3v-12a2.5,2.5,0,0,1,0-3v-12a2.5,2.5,0,0,1,0-3v-12a2.5,2.5,0,0,1,0-3v-12a2.53,2.53,0,0,0-.5-1.5,2.53,2.53,0,0,0,.5-1.5v-12a2.53,2.53,0,0,0-.5-1.5,2.53,2.53,0,0,0,.5-1.5v-12a2.53,2.53,0,0,0-.5-1.5,2.53,2.53,0,0,0,.5-1.5v-12a2.53,2.53,0,0,0-.5-1.5,2.53,2.53,0,0,0,.5-1.5v-12a2.53,2.53,0,0,0-.5-1.5,2.53,2.53,0,0,0,.5-1.5v-12a2.53,2.53,0,0,0-.5-1.5,2.53,2.53,0,0,0,.5-1.5v-12a2.53,2.53,0,0,0-.5-1.5,2.53,2.53,0,0,0,.5-1.5V193.33h7.23a2.42,2.42,0,0,0,1.5-.5,2.46,2.46,0,0,0,1.5.5h12a2.5,2.5,0,0,1,3,0h12a2.5,2.5,0,0,1,3,0h12a2.5,2.5,0,0,1,3,0h1.76c.34,0,.73,0,1.16,0l.73,0h.22a5,5,0,0,0,5-5V180.3a2.42,2.42,0,0,0-.5-1.5,2.46,2.46,0,0,0,.5-1.5v-12a2.42,2.42,0,0,0-.5-1.5,2.46,2.46,0,0,0,.5-1.5v-12a2.42,2.42,0,0,0-.5-1.5,2.46,2.46,0,0,0,.5-1.5v-12a2.42,2.42,0,0,0-.5-1.5,2.46,2.46,0,0,0,.5-1.5v-12a2.42,2.42,0,0,0-.5-1.5,2.46,2.46,0,0,0,.5-1.5v-7.39a5,5,0,0,0-5-5h-.34l-.59,0a6.49,6.49,0,0,1-.65.05h-3a2.48,2.48,0,0,0-1.5.5,2.53,2.53,0,0,0-1.5-.5h-12a2.48,2.48,0,0,0-1.5.5,2.53,2.53,0,0,0-1.5-.5h-12a2.5,2.5,0,0,1-3,0h-12a2.5,2.5,0,0,1-3,0h-6.54V94.07a2.53,2.53,0,0,0-.5-1.5,2.53,2.53,0,0,0,.5-1.5v-12a2.53,2.53,0,0,0-.5-1.5,2.5,2.5,0,0,0,.5-1.5v-12a2.53,2.53,0,0,0-.5-1.5,2.5,2.5,0,0,0,.5-1.5v-12a2.53,2.53,0,0,0-.5-1.5,2.5,2.5,0,0,0,.5-1.5v-12a2.53,2.53,0,0,0-.5-1.5,2.5,2.5,0,0,0,.5-1.5v-12a2.53,2.53,0,0,0-.5-1.5,2.5,2.5,0,0,0,.5-1.5v-12a2.45,2.45,0,0,0-.57-1.58A2.45,2.45,0,0,0,791.6.8a5.72,5.72,0,0,0-3.24-5.17A8.08,8.08,0,0,0,784.71-5h-9.42a2.53,2.53,0,0,0-1.5.5,2.53,2.53,0,0,0-1.5-.5h-12a2.53,2.53,0,0,0-1.5.5,2.53,2.53,0,0,0-1.5-.5h-12a2.53,2.53,0,0,0-1.5.5,2.53,2.53,0,0,0-1.5-.5h-12a2.53,2.53,0,0,0-1.5.5,2.53,2.53,0,0,0-1.5-.5h-12a2.53,2.53,0,0,0-1.5.5A2.47,2.47,0,0,0,712.3-5h-.43Zm33.42,5h12a2.53,2.53,0,0,0,1.5-.5,2.53,2.53,0,0,0,1.5.5h12a2.53,2.53,0,0,0,1.5-.5,2.53,2.53,0,0,0,1.5.5h9.45c.87,0,1.34,0,1.59.22h.06a1.3,1.3,0,0,1,.22.8,2.48,2.48,0,0,0,.56,1.44,2.49,2.49,0,0,0-.54,1.55v12a2.47,2.47,0,0,0,.5,1.49,2.5,2.5,0,0,0-.5,1.49v12a2.47,2.47,0,0,0,.5,1.49,2.46,2.46,0,0,0-.5,1.5v7.17h0v4.83a2.44,2.44,0,0,0,.5,1.5,2.46,2.46,0,0,0-.5,1.5v12a2.44,2.44,0,0,0,.5,1.5,2.46,2.46,0,0,0-.5,1.5v12a2.47,2.47,0,0,0,.5,1.49,2.5,2.5,0,0,0-.5,1.49v12a2.44,2.44,0,0,0,.5,1.5,2.46,2.46,0,0,0-.5,1.5v12a2.45,2.45,0,0,0,.46,1.44,2.5,2.5,0,0,0-.41,1.55v.07l.9-.06h0l-.1.86a11.1,11.1,0,0,0,1.41.07h9.29a2.47,2.47,0,0,1,3,0h12a2.5,2.5,0,0,0,1.49-.5,2.44,2.44,0,0,0,1.5.5h12a2.49,2.49,0,0,1,3,0h12a2.47,2.47,0,0,1,3,0h3.06c.35,0,.7,0,1-.06l.48,0h0v7.39a2.53,2.53,0,0,0,.5,1.5,2.48,2.48,0,0,0-.5,1.5v12a2.53,2.53,0,0,0,.5,1.5,2.48,2.48,0,0,0-.5,1.5v12a2.53,2.53,0,0,0,.5,1.5,2.48,2.48,0,0,0-.5,1.5v12a2.53,2.53,0,0,0,.5,1.5,2.48,2.48,0,0,0-.5,1.5v12a2.53,2.53,0,0,0,.5,1.5,2.48,2.48,0,0,0-.5,1.5v8.13h-.07l-.6,0-.86,0H846.9a2.53,2.53,0,0,0-1.5.5,2.48,2.48,0,0,0-1.5-.5h-12a2.47,2.47,0,0,1-3,0h-12a2.53,2.53,0,0,0-1.5.5,2.47,2.47,0,0,0-1.49-.5h-12a2.56,2.56,0,0,0-1.49.5,2.53,2.53,0,0,0-1.48-.5h-9.5a17.45,17.45,0,0,0-1.77.06l.12,1.16a2.48,2.48,0,0,0-1.1,2.07v.49h0v11.51a2.46,2.46,0,0,0,.5,1.5,2.46,2.46,0,0,0-.5,1.5v12a2.46,2.46,0,0,0,.5,1.5,2.46,2.46,0,0,0-.5,1.5v12a2.46,2.46,0,0,0,.5,1.5,2.46,2.46,0,0,0-.5,1.5v12a2.46,2.46,0,0,0,.5,1.5,2.46,2.46,0,0,0-.5,1.5v12a2.46,2.46,0,0,0,.5,1.5,2.46,2.46,0,0,0-.5,1.5v12a2.46,2.46,0,0,0,.5,1.5,2.46,2.46,0,0,0-.5,1.5v12a2.46,2.46,0,0,0,.5,1.5,2.46,2.46,0,0,0-.5,1.5v12a2.5,2.5,0,0,1,0,3v12a2.46,2.46,0,0,0,.5,1.5,2.5,2.5,0,0,0-.5,1.49v12a2.47,2.47,0,0,1,0,3v12a2.5,2.5,0,0,0,.5,1.5,2.46,2.46,0,0,0-.5,1.5v12a2.5,2.5,0,0,1,0,3v12a2.47,2.47,0,0,1,0,3v12a2.5,2.5,0,0,0,.5,1.49,2.46,2.46,0,0,0-.5,1.5v12a2.5,2.5,0,0,1,0,3v12a2.5,2.5,0,0,0,.5,1.49,2.46,2.46,0,0,0-.5,1.5v1.8h0v0h0v.74c0,.41,0,.81,0,1.22h0v0h0c0,1.3-.17,1.43-1.4,1.47h-5.71a2.46,2.46,0,0,0-1.5.5,2.41,2.41,0,0,0-1.49-.5h-12a2.43,2.43,0,0,0-1.49.5,2.38,2.38,0,0,0-1.48-.5h-12a2.46,2.46,0,0,0-1.5.5,2.42,2.42,0,0,0-1.5-.5h-12a2.46,2.46,0,0,0-1.5.5,2.38,2.38,0,0,0-1.48-.5h-12a2.46,2.46,0,0,0-1.5.5,2.4,2.4,0,0,0-1.48-.5h-5.22c-1-.05-1.19-.22-1.23-1.29h0v0h0v0h0v0h0c0-.37,0-.74,0-1.11,0-.1,0-.21,0-.32v-.46h0v0h0v0h0V431a2.53,2.53,0,0,0-.5-1.5,2.47,2.47,0,0,0,.5-1.49V416a2.53,2.53,0,0,0-.5-1.5,2.48,2.48,0,0,0,.5-1.5v-12a2.52,2.52,0,0,0-.5-1.49,2.47,2.47,0,0,0,.5-1.48V386a2.53,2.53,0,0,0-.5-1.5,2.48,2.48,0,0,0,.5-1.5v-12a2.52,2.52,0,0,0-.5-1.49,2.47,2.47,0,0,0,.5-1.48V356a2.53,2.53,0,0,0-.5-1.5,2.48,2.48,0,0,0,.5-1.5V341a2.53,2.53,0,0,0-.5-1.5,2.47,2.47,0,0,0,.5-1.48V326a2.53,2.53,0,0,0-.5-1.5,2.48,2.48,0,0,0,.5-1.5v-12a2.52,2.52,0,0,0-.5-1.49,2.47,2.47,0,0,0,.5-1.48V296a2.53,2.53,0,0,0-.5-1.5,2.47,2.47,0,0,0,.5-1.49V281a2.53,2.53,0,0,0-.5-1.5,2.48,2.48,0,0,0,.5-1.5v-12a2.5,2.5,0,0,0-.5-1.49,2.48,2.48,0,0,0,.5-1.5v-12a2.52,2.52,0,0,0-.5-1.49,2.48,2.48,0,0,0,.5-1.5V236a2.53,2.53,0,0,0-.5-1.5,2.48,2.48,0,0,0,.5-1.5V221a2.53,2.53,0,0,0-.5-1.5,2.47,2.47,0,0,0,.5-1.49v-12a2.52,2.52,0,0,0-.5-1.49,2.48,2.48,0,0,0,.5-1.5V192.12h0v0h0v-.63h0v-.05h0v-.07h0v-.14h0v0h0v0h0v0h0v0h0v0h0a2.49,2.49,0,0,0-1.54-2.29v0h-.18l-.95,0h-10.5a2.52,2.52,0,0,0-1.5.49,2.49,2.49,0,0,0-1.49-.49h-12a2.3,2.3,0,0,1-3,0h-.32a.78.78,0,0,1-.72-.68,4.05,4.05,0,0,1-.07-.7c0-.42,0-.84,0-1.26v-.15h0v-8.5a2.59,2.59,0,0,0-.5-1.5,2.48,2.48,0,0,0,.5-1.5v-12a2.53,2.53,0,0,0-.5-1.5,2.48,2.48,0,0,0,.5-1.5v-12a2.53,2.53,0,0,0-.5-1.5,2.54,2.54,0,0,0,.5-1.49v-12a2.59,2.59,0,0,0-.5-1.5,2.54,2.54,0,0,0,.5-1.49v-12a2.53,2.53,0,0,0-.5-1.5,2.48,2.48,0,0,0,.5-1.5v-1.39c0-.62,0-1.24,0-1.86h0v0h0v0h0a.87.87,0,0,1,.91-.9c.37,0,.74,0,1.12,0H686a2.46,2.46,0,0,0,1.5-.5,2.42,2.42,0,0,0,1.5.5h12a2.52,2.52,0,0,0,1.49-.5,2.47,2.47,0,0,0,1.49.5h3.81l.54,0h0v-.56h.06v.55a3.4,3.4,0,0,0,.69-.08h0a2.21,2.21,0,0,0,.5-.19h0v0h0c0-.06,0-.12,0-.18v0c0-.18.08-.38.11-.57h0s0-.1,0-.15h0a.41.41,0,0,1,0-.11h0v0h0v0h0v0h0v0h0v0h0v0h0v0h0c0-.32,0-.65,0-1h0v0h0v-.19h0v-.49h0v-3a2.47,2.47,0,0,0-.5-1.48,2.53,2.53,0,0,0,.5-1.5v-12a2.47,2.47,0,0,0-.5-1.49,2.53,2.53,0,0,0,.5-1.5v-12a2.48,2.48,0,0,0-.5-1.5,2.5,2.5,0,0,0,.5-1.49v-12a2.48,2.48,0,0,0-.5-1.5,2.53,2.53,0,0,0,.5-1.5v-12a2.48,2.48,0,0,0-.5-1.5,2.53,2.53,0,0,0,.5-1.5v-12a2.48,2.48,0,0,0-.5-1.5,2.5,2.5,0,0,0,.5-1.49v-12a2.47,2.47,0,0,0-.5-1.49,2.53,2.53,0,0,0,.5-1.5V3.1h0V2.48c0-.3,0-.61,0-.92h0v0h0v0h0v0h0v0h0v0h0v0h0v0h0v0h0v0h0v0h0v0h0v0h0v0h0v0h0v0h0V1h0V1h0V1h0c0-.68.31-.9,1-1,.26,0,.52,0,.78,0h.42a2.46,2.46,0,0,0,1.5-.5,2.41,2.41,0,0,0,1.49.5h12a2.47,2.47,0,0,0,1.49-.5,2.5,2.5,0,0,0,1.49.5h12a2.53,2.53,0,0,0,1.5-.5,2.53,2.53,0,0,0,1.5.5Z"/><path class="cls-1" d="M77,133.36c.7.26,1.2-.11,1.72-.36,3.08-1.48,6.17-2.94,9.23-4.46a201.42,201.42,0,0,1,18.74-8.26,166.8,166.8,0,0,1,26.12-7.49c4.16-.82,8.35-1.44,12.55-2,1.86-.24,3.75-.29,5.63-.47a161.67,161.67,0,0,1,18.55-.27c2.35.06,4.69.34,7,.57q3.25.33,6.49.78c2.5.36,5,.73,7.49,1.19a206,206,0,0,1,21.62,5.18,177.86,177.86,0,0,1,22,8.16,155,155,0,0,1,24.44,13.78A145.81,145.81,0,0,1,277.15,155a152.62,152.62,0,0,1,21.54,26.15,183.35,183.35,0,0,1,17.89,35.42,167.4,167.4,0,0,1,6.57,20.88,147.58,147.58,0,0,1,2.74,14.74c.46,3.45.78,6.9,1.07,10.36.5,6.12.32,12.25.22,18.38,0,2.34-.34,4.69-.57,7s-.49,4.44-.74,6.66c-.52,4.45-1.35,8.84-2.31,13.21a166.71,166.71,0,0,1-37,73.59,158.63,158.63,0,0,1-33.19,29,169.38,169.38,0,0,1-31.91,16.26,157.73,157.73,0,0,1-23.68,7c-3.8.8-7.62,1.49-11.49,1.92-2.92.33-5.84.73-8.77,1-5.52.44-11.06.51-16.6.47-4.54,0-9.06-.28-13.58-.69-4.11-.36-8.19-.9-12.26-1.57a150,150,0,0,1-15.5-3.46A155.14,155.14,0,0,1,88,418.7,172.5,172.5,0,0,1,51,392.2a158,158,0,0,1-24.93-29.73,160.19,160.19,0,0,1-18-37.91A164.7,164.7,0,0,1,3,304.75c-.53-2.77-.81-5.58-1.2-8.38-.55-3.9-.85-7.84-1.63-11.71A8.4,8.4,0,0,1,0,283.43c0-.59,0-1.18,0-1.77V3c0-.7,0-1.41,0-2.12A.74.74,0,0,1,.8.05,13.29,13.29,0,0,1,2.21,0H74.53c.64,0,1.28,0,2,.07a6.53,6.53,0,0,1,.29,1.08,13.26,13.26,0,0,1,0,1.41q0,64.29,0,128.56A6,6,0,0,0,77,133.36ZM165,359.1c1.82-.11,5-.19,8.05-.52a82.63,82.63,0,0,0,11.11-2A86.17,86.17,0,0,0,236,319.21a83.35,83.35,0,0,0,10.17-23A81.66,81.66,0,0,0,248.69,283c.29-2.88.53-5.75.56-8.64,0-1.94-.19-3.88-.23-5.82a65.1,65.1,0,0,0-1.23-10.51,83.5,83.5,0,0,0-10.72-28.26,85.88,85.88,0,0,0-41.19-35.49,82,82,0,0,0-19.53-5.38,90.2,90.2,0,0,0-9.13-.93,84.85,84.85,0,0,0-20.72,1.68,84,84,0,0,0-18.9,6.23,86.2,86.2,0,0,0-43.31,45.54,83.88,83.88,0,0,0-5.42,20.24A93.25,93.25,0,0,0,78,273.13a84.35,84.35,0,0,0,.9,12.49,79.72,79.72,0,0,0,3.68,15.43,84.85,84.85,0,0,0,33.46,43.49C130.41,354.21,146.33,359,165,359.1Z"/><path class="cls-2" d="M76.84,132.9Zm0,0Zm0,0Zm0,0Zm0,0Zm0,0Zm0,0Zm0,0Zm0,0Zm0,0h0Zm0,0h0Zm0,0Zm0,0Zm0,0Zm0,0h0Zm0,0Zm0,0h0Zm0,0h0Zm0,0Zm0,0h0Zm0,0v0Zm0,0Zm0,0Zm0,0h0Zm0,0h0Zm0,0Zm0,0Zm0,0h0Zm0,0h0Zm0,0Zm0,0h0Zm0,0h0Zm0,0Zm0,0Zm0,0h0Zm0,0h0Zm0,0h0Zm0,0h0Zm0,0Zm0,0h0Zm0,0Zm0,0h0Zm0,0h0Zm0,0Zm0,0Zm0,0Zm0,0Zm0,0Zm0,0h0Zm0,0h0Zm0,0Zm0,0Zm0,0a1.45,1.45,0,0,0,.48.09h0a1.45,1.45,0,0,1-.48-.09Zm.75.06h0Zm0,0h0Zm-.07,0h0Zm0,0h0Zm0,0h0Zm0,0h0Zm0,0h0Zm0,0Zm0,0h0Zm0,0h0Zm0,0h0Zm0,0h0Zm0,0h0Zm0,0h0Zm0,0ZM35.75-5h-12a2.53,2.53,0,0,0-1.5.5,2.53,2.53,0,0,0-1.5-.5h-12a2.5,2.5,0,0,0-1.5.5A2.53,2.53,0,0,0,5.75-5H2.21a18.56,18.56,0,0,0-1.88.07A5.75,5.75,0,0,0-5,.59c0,.75,0,1.46,0,2.14V6.66a2.5,2.5,0,0,0,.5,1.5A2.53,2.53,0,0,0-5,9.66v12a2.53,2.53,0,0,0,.5,1.5,2.53,2.53,0,0,0-.5,1.5v12a2.53,2.53,0,0,0,.5,1.5,2.53,2.53,0,0,0-.5,1.5v12a2.53,2.53,0,0,0,.5,1.5,2.53,2.53,0,0,0-.5,1.5v12a2.53,2.53,0,0,0,.5,1.5,2.53,2.53,0,0,0-.5,1.5v12a2.53,2.53,0,0,0,.5,1.5,2.53,2.53,0,0,0-.5,1.5v12a2.5,2.5,0,0,0,.5,1.5,2.53,2.53,0,0,0-.5,1.5v12a2.5,2.5,0,0,0,.5,1.5,2.53,2.53,0,0,0-.5,1.5v12a2.5,2.5,0,0,0,.5,1.5,2.53,2.53,0,0,0-.5,1.5v12a2.5,2.5,0,0,0,.5,1.5,2.53,2.53,0,0,0-.5,1.5v12a2.5,2.5,0,0,0,.5,1.5,2.53,2.53,0,0,0-.5,1.5v12a2.5,2.5,0,0,0,.5,1.5,2.53,2.53,0,0,0-.5,1.5v12a2.5,2.5,0,0,0,.5,1.5,2.53,2.53,0,0,0-.5,1.5v12a2.5,2.5,0,0,0,.5,1.5,2.53,2.53,0,0,0-.5,1.5v12a2.5,2.5,0,0,0,.5,1.5,2.53,2.53,0,0,0-.5,1.5v12a2.5,2.5,0,0,0,.5,1.5,2.53,2.53,0,0,0-.5,1.5v12a2.5,2.5,0,0,0,.5,1.5,2.53,2.53,0,0,0-.5,1.5v12a2.5,2.5,0,0,0,.5,1.5,2.53,2.53,0,0,0-.5,1.5v12a2.5,2.5,0,0,0,.5,1.5,2.53,2.53,0,0,0-.5,1.5v2.46c0,.49,0,1,0,1.48a13.55,13.55,0,0,0,.22,2c.43,2.13.71,4.39,1,6.52a2.5,2.5,0,0,0,.69,1.44,2.38,2.38,0,0,0-.32,1.56c.07.63.16,1.26.24,1.89.12.82.22,1.64.33,2.46.25,2,.52,4.08.92,6.18.11.57.23,1.15.34,1.72a2.49,2.49,0,0,0,.84,1.41A2.49,2.49,0,0,0-1,310.45c.88,3.88,1.94,7.9,3.16,11.95a2.49,2.49,0,0,0,.95,1.31,2.52,2.52,0,0,0,0,1.63l.25.77c1.19,3.67,2.51,7.32,3.92,10.86a2.53,2.53,0,0,0,1.07,1.23,2.42,2.42,0,0,0,.11,1.63c1.6,3.8,3.36,7.57,5.22,11.21a2.53,2.53,0,0,0,1.18,1.13,2.47,2.47,0,0,0,.26,1.61c1.95,3.62,4,7.22,6.27,10.67a2.5,2.5,0,0,0,1.28,1,2.53,2.53,0,0,0,.41,1.58c2.28,3.42,4.73,6.79,7.26,10a2.48,2.48,0,0,0,1.37.89,2.47,2.47,0,0,0,.56,1.53c2.59,3.18,5.34,6.3,8.18,9.29a2.44,2.44,0,0,0,1.44.75,2.51,2.51,0,0,0,.71,1.48c1.61,1.63,3.29,3.26,5,4.84,1.31,1.23,2.66,2.45,4,3.63a2.46,2.46,0,0,0,1.51.62,2.41,2.41,0,0,0,.82,1.4c3.14,2.68,6.39,5.26,9.66,7.69a2.48,2.48,0,0,0,1.48.49h.07a2.49,2.49,0,0,0,.94,1.33c3.35,2.39,6.81,4.69,10.29,6.82a2.5,2.5,0,0,0,1.31.37l.28,0A2.46,2.46,0,0,0,79,419.42c2.17,1.28,4.39,2.52,6.61,3.7,1.41.75,2.84,1.48,4.27,2.19a2.54,2.54,0,0,0,1.1.26,2.24,2.24,0,0,0,.52-.06,2.49,2.49,0,0,0,1.17,1.14c3.72,1.75,7.56,3.37,11.4,4.83a2.5,2.5,0,0,0,.89.16,2.3,2.3,0,0,0,.74-.12,2.46,2.46,0,0,0,1.28,1c3.68,1.32,7.46,2.51,11.26,3.56l.55.15a2.15,2.15,0,0,0,.66.09,2.38,2.38,0,0,0,1-.19,2.45,2.45,0,0,0,1.37.89c4.08,1,8.16,1.9,12.13,2.57a2,2,0,0,0,.42,0,2.56,2.56,0,0,0,1.19-.3,2.49,2.49,0,0,0,1.44.75c3.36.51,6.7.91,9.92,1.2l2.36.19h.19a2.44,2.44,0,0,0,1.38-.42,2.44,2.44,0,0,0,1.5.62c2.94.18,5.82.28,8.56.3h3.76a2.47,2.47,0,0,0,1.53-.53,2.43,2.43,0,0,0,1.49.5h0c3.73-.06,7.07-.21,10.21-.46l2.2-.2a2.47,2.47,0,0,0,1.48-.69,2.44,2.44,0,0,0,1.28.36h.3l1-.13,2.66-.31c2.68-.3,5.47-.73,8.54-1.31a2.53,2.53,0,0,0,1.42-.81,2.57,2.57,0,0,0,1.1.25,2.35,2.35,0,0,0,.52-.05l.39-.08c3.89-.83,7.8-1.81,11.62-2.92a2.57,2.57,0,0,0,1.33-.94,2.63,2.63,0,0,0,.88.16,2.45,2.45,0,0,0,.75-.12c3.3-1,6.62-2.18,9.85-3.42l1.81-.71a2.45,2.45,0,0,0,1.24-1.06,2.44,2.44,0,0,0,.66.09,2.49,2.49,0,0,0,1-.19c3.8-1.58,7.58-3.31,11.23-5.14a2.51,2.51,0,0,0,1.14-1.16,3.27,3.27,0,0,0,.45,0,2.43,2.43,0,0,0,1.16-.29c3.64-1.9,7.25-4,10.73-6.12a2.49,2.49,0,0,0,1-1.26h.23a2.47,2.47,0,0,0,1.35-.4l.86-.55c3.16-2.06,6.29-4.26,9.29-6.53a2.51,2.51,0,0,0,.91-1.36,2.48,2.48,0,0,0,1.54-.53c3.22-2.54,6.4-5.24,9.43-8a2.41,2.41,0,0,0,.77-1.44,2.44,2.44,0,0,0,1.49-.68c3-2.81,5.86-5.79,8.63-8.85a2.56,2.56,0,0,1,2.05-2.31l.12-.15c2.66-3.05,5.24-6.23,7.66-9.45a2.6,2.6,0,0,1,1.84-2.49c2.41-3.32,4.72-6.78,6.88-10.27a2.45,2.45,0,0,0,.36-1.59,2.49,2.49,0,0,0,1.25-1.05c2.08-3.51,4.08-7.16,5.92-10.84a2.48,2.48,0,0,0,.21-1.62,2.44,2.44,0,0,0,1.15-1.16c.63-1.33,1.26-2.69,1.87-4,1.07-2.4,2.11-4.85,3.07-7.28a2.54,2.54,0,0,0,.07-1.63,2.44,2.44,0,0,0,1-1.26c1.44-3.84,2.75-7.79,3.9-11.73a2.56,2.56,0,0,1,.84-3c.76-2.77,1.45-5.6,2.07-8.42.28-1.27.53-2.45.76-3.59a2.54,2.54,0,0,0-.22-1.62,2.58,2.58,0,0,0,.8-1.43c.45-2.5.79-4.81,1.05-7.06l.17-1.42c.15-1.25.29-2.51.43-3.76a2.46,2.46,0,0,0-.35-1.56,2.47,2.47,0,0,0,.66-1.44V287c.2-1.92.41-3.9.44-6l0-2c0-1.47.05-2.93.07-4.4a2.53,2.53,0,0,0-.51-1.53,2.5,2.5,0,0,0,.52-1.53c0-3.59-.12-6.57-.35-9.38-.08-1-.17-2-.26-3a2.56,2.56,0,0,0-.66-1.48,2.48,2.48,0,0,0,.36-1.57c-.17-1.6-.34-3.07-.53-4.51-.33-2.52-.75-5.14-1.25-7.77a2.45,2.45,0,0,0-.81-1.42,2.49,2.49,0,0,0,.21-1.62c-.3-1.44-.63-2.93-1-4.43-.58-2.47-1.26-5-2-7.61a2.52,2.52,0,0,0-.95-1.32,2.49,2.49,0,0,0,0-1.64c-1.1-3.46-2.35-7-3.83-10.93l-.25-.67a2.5,2.5,0,0,0-1-1.24,2.52,2.52,0,0,0-.09-1.62c-1.54-3.84-3.2-7.63-4.92-11.27a2.54,2.54,0,0,0-1.14-1.17,2.52,2.52,0,0,0-.2-1.61c-1.84-3.71-3.8-7.36-5.83-10.87a2.54,2.54,0,0,0-1.24-1.06,2.44,2.44,0,0,0-.34-1.59c-1.08-1.78-2.2-3.57-3.33-5.29s-2.27-3.41-3.44-5a2.46,2.46,0,0,0-1.33-1,2.45,2.45,0,0,0-.49-1.56c-2.45-3.33-5.06-6.59-7.74-9.67a2.42,2.42,0,0,0-1.41-.82,2.55,2.55,0,0,0-.64-1.51c-2.31-2.55-4.73-5.06-7.19-7.45L279.15,150a2.51,2.51,0,0,0-1.49-.67,2.5,2.5,0,0,0-.79-1.43c-3.06-2.77-6.27-5.45-9.53-8a2.53,2.53,0,0,0-1.52-.51h0a2.56,2.56,0,0,0-.93-1.35c-1.12-.82-2.27-1.64-3.42-2.44-2.23-1.54-4.54-3.05-6.87-4.49a2.5,2.5,0,0,0-1.31-.37l-.28,0a2.52,2.52,0,0,0-1.06-1.25c-3.51-2.06-7.17-4-10.9-5.87a2.56,2.56,0,0,0-1.1-.25,3,3,0,0,0-.52,0,2.47,2.47,0,0,0-1.17-1.13c-.67-.32-1.35-.63-2-.93-3-1.37-6.17-2.68-9.36-3.9a2.55,2.55,0,0,0-1.63,0,2.49,2.49,0,0,0-1.27-1c-3.32-1.2-6.82-2.36-10.38-3.43l-1.32-.39a2.42,2.42,0,0,0-.7-.1,2.59,2.59,0,0,0-.92.17,2.49,2.49,0,0,0-1.34-.91c-3.83-1-7.85-2-11.95-2.9a3.15,3.15,0,0,0-.52-.05,2.49,2.49,0,0,0-1.09.25,2.43,2.43,0,0,0-1.4-.81c-1-.2-1.94-.38-2.91-.56-2.65-.5-5.27-.88-7.7-1.23l-1.55-.21-.33,0a2.45,2.45,0,0,0-1.27.35,2.43,2.43,0,0,0-1.47-.7l-2.07-.22-1.16-.12c-2-.21-4.1-.43-6.26-.48h-.41l-2.51,0h-.06a2.42,2.42,0,0,0-1.47.48,2.51,2.51,0,0,0-1.52-.54l-2.68,0c-3.73,0-6.84.12-9.79.37a2.5,2.5,0,0,0-1.42.6,2.45,2.45,0,0,0-1.31-.38h-.17c-1.09.07-2.32.15-3.59.32-3.29.42-6.18.84-8.81,1.29a2.5,2.5,0,0,0-1.43.78,2.5,2.5,0,0,0-1.15-.28,2.59,2.59,0,0,0-.47,0l-1,.19c-3.64.72-7.36,1.59-11.05,2.59a2.52,2.52,0,0,0-1.34.92,2.48,2.48,0,0,0-.93-.18,2.42,2.42,0,0,0-.7.1c-3.85,1.12-7.79,2.42-11.72,3.85a2.48,2.48,0,0,0-1.26,1,2.47,2.47,0,0,0-1.63.06c-3.59,1.39-7.3,3-11.34,4.86a2.43,2.43,0,0,0-1.16,1.12,2.31,2.31,0,0,0-.52-.06,2.47,2.47,0,0,0-1.08.25l-3.38,1.64c-1.28.64-2.59,1.27-3.89,1.9v-3.82a2.53,2.53,0,0,0-.5-1.5,2.5,2.5,0,0,0,.5-1.5v-12a2.53,2.53,0,0,0-.5-1.5,2.5,2.5,0,0,0,.5-1.5v-12a2.53,2.53,0,0,0-.5-1.5,2.5,2.5,0,0,0,.5-1.5v-12a2.53,2.53,0,0,0-.5-1.5,2.5,2.5,0,0,0,.5-1.5v-12a2.52,2.52,0,0,0-.49-1.5,2.47,2.47,0,0,0,.49-1.5v-12a2.46,2.46,0,0,0-.5-1.5,2.42,2.42,0,0,0,.5-1.5v-12a2.46,2.46,0,0,0-.5-1.5,2.42,2.42,0,0,0,.5-1.5v-12a2.46,2.46,0,0,0-.5-1.5,2.42,2.42,0,0,0,.5-1.5V2.56c0-.1,0-.21,0-.31A2.5,2.5,0,0,0,79.35-.3h0a2.5,2.5,0,0,0-2.5,2.44v.09a2.62,2.62,0,0,1,0,.28h0v0h0v0h0V14.15a2.54,2.54,0,0,0,.5,1.49,2.59,2.59,0,0,0-.5,1.5v12a2.54,2.54,0,0,0,.5,1.49,2.59,2.59,0,0,0-.5,1.49v12a2.48,2.48,0,0,0,.5,1.5,2.56,2.56,0,0,0-.5,1.49v12a2.48,2.48,0,0,0,.5,1.5,2.53,2.53,0,0,0-.5,1.5c0,2,0,3.9,0,5.84v6.17a2.41,2.41,0,0,0,.5,1.49,2.46,2.46,0,0,0-.5,1.5v12a2.42,2.42,0,0,0,.5,1.5,2.46,2.46,0,0,0-.5,1.5v12a2.42,2.42,0,0,0,.5,1.5,2.46,2.46,0,0,0-.5,1.5v12a2.47,2.47,0,0,0,.5,1.49,2.53,2.53,0,0,0-.5,1.5v9c0,.42,0,.84,0,1.26l.56,0h0l1.37-.06h0l-1.37.06-.38,1h0l2.46-1a2.32,2.32,0,0,0,.81-.15h0c2.07-1,4.15-2,6.21-3h0l.21-.1h0l.1,0,0,0,0,0,.06,0,.06,0,.06,0,0,0,.09-.05h0l.07,0,0,0,.08,0h0l.1-.05h0l.08,0h0l.1,0h0l.11-.06h0l.09,0,0,0,0,0,.09,0,0,0,.06,0h0l.19-.09,0,0,0,0h0l.09-.05,0,0,.05,0,.06,0,0,0,.07,0h0l2.27-1.11a2.44,2.44,0,0,0,1.14-1.1,2.24,2.24,0,0,0,.52.06,2.47,2.47,0,0,0,1-.24c3.63-1.68,7.3-3.28,11-4.72a2.47,2.47,0,0,0,1.22-1,2.27,2.27,0,0,0,.73.11,2.31,2.31,0,0,0,.85-.15q2-.73,4.08-1.44h0l.08,0h0l.08,0h0l.17,0h0l.08,0h0l.08,0h0l.08,0h0l.07,0h0l.08,0h0l.07,0h0l.07,0h0l.06,0h0l.07,0h0l.07,0h0l.07,0h0l.06,0h0l0,0h0l.06,0h0l.07,0h.08l0,0h.08l.06,0h0l.06,0h0l.06,0h0l0,0h0l0,0h0l.06,0h0l.06,0h.08l0,0h.09l.07,0h0l.07,0h0l.06,0h0l.06,0h0l.07,0h0l.07,0h0l.07,0h0l.07,0h0l.07,0h0l.07,0h0l.08,0h0l.07,0h0l.08,0h0l.08,0h0l.08,0h0l.17,0h0l.08,0h0c1-.32,2-.62,3.05-.92a2.48,2.48,0,0,0,1.3-.9,2.65,2.65,0,0,0,.93.18,2.35,2.35,0,0,0,.64-.09c1.33-.36,2.66-.7,4-1h0l.25-.06h0l.07,0h0l.07,0h0l.08,0h0l.07,0h0l.07,0h0l.07,0h0l.05,0h0l.07,0h0l.06,0h0l.05,0h0l.06,0h.07l0,0h.11l.06,0h.44l.14,0h0l.09,0h0l.14,0h0l.1,0h0l.15,0h0l.41-.09h0l2-.44h0l.15,0h.16l.1,0h0l.14,0h0l.08,0h.07l.09,0h.66l.06,0H133l.8-.15a2.51,2.51,0,0,0,1.38-.78,2.5,2.5,0,0,0,1.15.28l.41,0c1.61-.27,3.22-.52,4.84-.75h.07l.33,0h.21l.13,0h3.15l1-.11h.29l1.86-.13a2.46,2.46,0,0,0,1.45-.6,2.5,2.5,0,0,0,1.32.37h.21c2.83-.25,5.66-.34,8.49-.35h3.53a2.54,2.54,0,0,0,1.48-.48,2.47,2.47,0,0,0,1.48.53l2.72.07h.92c1.31.06,2.63.18,3.93.31h.13l1.23.13,1,.09h.07l2,.22h.28a2.55,2.55,0,0,0,1.27-.35,2.49,2.49,0,0,0,1.42.7l1.24.17H183c2.5.36,5,.73,7.49,1.19h0l.09,0h0l.07,0h.19l.07,0h.19l.08,0h.09l1.69.33h.16l.08,0h0l.12,0a2.72,2.72,0,0,0,.49,0,2.48,2.48,0,0,0,1.08-.25,2.45,2.45,0,0,0,1.37.8q5.87,1.24,11.66,2.83a2.56,2.56,0,0,0,.66.09,2.36,2.36,0,0,0,.92-.18,2.52,2.52,0,0,0,1.31.91l.35.1h.07l.06,0h0l.8.24h0l.09,0h0l.06,0h0l.06,0h0l.06,0h0l.06,0h.11l.07,0h0l.08,0h0l.35.11h0l.08,0h0l.08,0h0l.08,0h0l.09,0h0c1.05.32,2.1.66,3.15,1h0l.08,0h0l.08,0h0l.08,0h0l.08,0h0l.43.14h0l.07,0h0l.06,0h0l.06,0h.08l0,0h.09l.05,0h0l.05,0h0l.08,0h.08l.05,0h0l0,0h0l.05,0h.11l.06,0h0l.06,0h0l.07,0h0c1.16.39,2.31.8,3.46,1.21a2.48,2.48,0,0,0,.84.15,2.65,2.65,0,0,0,.74-.11,2.59,2.59,0,0,0,1.22,1l.62.23h0l.33.13h0l.07,0h0l.07,0h0l.17.07h0l.08,0h0l.06,0h0l.06,0h0l.07,0h0l.08,0h0l.08,0h0l.06,0h0l.06,0h0l.06,0h0l.08,0h0l.07,0h0l.05,0h0l0,0h0l.05,0h0l.16.06,0,0,.05,0h0l0,0h0l.05,0h0l.06,0h0l.07,0h0l.05,0h0l.05,0h0l.06,0h0l.08,0h0l.08,0h0l.06,0h0l0,0,0,0,.05,0h0l.06,0h0l.08,0h0l.07,0h0l.06,0h0l.06,0h0l.16.07h0l.08,0h0l.07,0h0l.07,0h0l.08,0h0l.17.07h0l.07,0h0l.06,0h0l.25.11h0l.08,0h0l.07,0h0l.33.14h0l.07,0h0l.33.14h0l.08,0h0l.08,0h0l.26.1h0l.08,0h0l.34.15h0l.08,0h0l.42.19h0l.08,0h0l.33.14h0l.07,0h0l.25.11h0l.07,0h0l.07,0h0l.08,0h0l.17.07h0l.06,0h0l.05,0h0l0,0h0l.08,0h0l.86.39h0l.05,0h.06l0,0h0l.12,0h0l0,0h0l0,0h0l.14.06h0l0,0h0l0,0h.05l.43.2a2.46,2.46,0,0,0,1,.23,3.05,3.05,0,0,0,.52,0,2.46,2.46,0,0,0,1.12,1.11q5.4,2.64,10.57,5.69a2.46,2.46,0,0,0,1.27.35l.28,0a2.51,2.51,0,0,0,1,1.22l.86.53h0l0,0h0l0,0,0,0,0,0,0,0h0l0,0h0l0,0h0l0,0h0l0,0h0c.81.5,1.6,1,2.4,1.54h0l.1.06h0l.16.1h0l0,0h0l0,0,0,0h0l0,0,0,0h0l0,0h0l.11.08h0l0,0h0l0,0h0l0,0h0l0,0h0l0,0h0l1.82,1.23h0l0,0h0l0,0h0l0,0,0,0,0,0h0l0,0,0,0h0l.07.05h0l1.91,1.35h0l.15.11h0l.14.11h0l.07,0h0l.07.05h0l.06,0h0l.06,0,0,0,.06,0h0l.06,0,0,0,0,0h0l.06.05h0l.05,0h0l.06,0,0,0,.05,0h0l.06.05,0,0,.05,0h0a2.48,2.48,0,0,0,1.48.49h0a2.48,2.48,0,0,0,.89,1.31c1.11.85,2.21,1.72,3.3,2.6h0l.07.05h0l.06.05h0l.07,0h0l.06,0h0l.06,0,0,0,0,0,0,0,0,0,0,0,0,0,0,0,0,0,0,0,0,0,0,0,0,0,0,0,0,0,0,0,0,0,0,0,0,0,0,0,0,0,0,0,0,0,0,0,0,0,0,0,0,0,0,0,0,0,0,0,0,0,0,0,0,0,.05,0,0,0,.05,0,0,0,0,0h0l0,.05h0l.06.05h0l.06.05h0l.06.05,0,0,.05,0h0l.05.05h0l0,.05h0l.06.05h0l.06,0h0l.06,0,0,0,.05,0,0,0,.05,0,0,0,.05,0,0,0,0,0,0,0,0,0h0l.06,0h0l.06,0h0l.07.06h0l.05.05,0,0,.05,0,0,0,0,0,0,0,0,0,0,0,0,0,0,0,0,0,0,0,0,0,.06,0v0l.06,0h0l.14.11h0l2.17,1.93a2.54,2.54,0,0,0,1.46.64,2.51,2.51,0,0,0,.75,1.4l0,0,0,0,0,0,.06.05h0l.07.06h0l.26.25h0l.06.06h0l0,0,0,0,0,0,.05,0h0l.66.63,0,0h0l.05.05h0l0,0v0l0,0,0,0,0,0h0l.05.05h0l.11.11h0l0,0h0l0,0h0l0,.05h0l.11.1h0l.05.05h0l0,0h0l.05,0h0l0,0h0l.11.1h0l0,.05h0l0,0h0l.05,0h0l.16.16h0l.05,0h0l0,0h0l.05.05h0l.11.11h0l0,0,0,0,0,0v0l0,0h0l.05,0h0l.05,0h0l0,.05,0,0,0,0,0,0,0,0h0l0,0,0,0,0,0h0l.05.05,0,0,0,0,0,0,0,0,0,0,0,0,0,0,0,0v0l0,0,0,0,0,0,0,0,0,0,0,0,0,0,0,0,0,0,0,0,0,0,0,.05,0,0,0,0,0,0,0,0,0,0,0,0,0,0,0,0,0,0,.16.16h0l0,0h0l0,0h0l.27.28h0q1.5,1.56,2.95,3.15h0l0,0h0l.05,0h0l.17.18v0l0,0,0,0,0,0v0l0,0h0l0,0a2.51,2.51,0,0,0,1.38.78,2.52,2.52,0,0,0,.61,1.47c.17.2.34.39.5.59h0l.08.1h0l0,0h0l.11.13,0,0,0,0,0,0,0,0,0,0,0,0,0,0,0,0,.05.06,0,0,0,0,0,0,.05.06h0l.05.06h0l.05.07h0l.05.06v0l.05.05h0l.05.07h0l.05.06h0l.11.13h0l.12.14h0l.06.07h0l.12.14h0l.12.14h0l.3.36h0l.29.36h0l.12.15h0l.18.21h0l.12.14h0l.18.22h0l.11.14h0l.11.14h0l.05.06h0l.06.08h0l.05.06h0l.11.14h0l.05.06h0l.05.07h0l.05.06h0l.06.07h0l.05.07h0l.11.13v0l0,.06h0l0,.06v0l0,.05v0l.06.06h0l.05.06v0l.05,0h0l.05.07h0l0,.06h0l.06.07h0l.05,0v0l.05.05h0l.06.07h0l0,.06h0l0,.07h0l0,.06h0l.1.14h0l.05.06h0l.05.07h0l.05.06h0l.06.07h0l.05.07h0l.11.14h0l0,.06h0l0,.07h0l0,.07h0l.12.14h0c.55.73,1.1,1.45,1.64,2.19a2.47,2.47,0,0,0,1.29.9,2.45,2.45,0,0,0,.46,1.52l.08.11h0l0,.05h0l.12.16h0l1.32,1.9h0l.15.21h0l.11.16h0l0,0h0l.07.1h0l0,0v0l.1.14v0l0,0v0l0,.08,0,0,0,0v0l0,0,0,0,0,.07,0,0,0,0,0,0,0,0,0,0,0,0,0,0,0,0,0,0,0,0,0,0,0,0,0,0,0,0,0,.07,0,0,0,0v0l0,.06,0,0,0,0,0,0,0,.05v0l.05.07v0l0,.05,0,0,0,.07h0l0,.07v0l0,0v0l0,.06v0l0,.06v0l.05.07h0l.05.07h0l.05.07h0q1.41,2.15,2.74,4.32v0l0,.05,0,0,0,0,0,.05h0l.27.45a2.5,2.5,0,0,0,1.21,1,2.56,2.56,0,0,0,.32,1.56c.23.38.45.77.68,1.16h0a2.15,2.15,0,0,1,.14.26h0l0,.05v0l0,0,0,0,0,0,0,0,0,.07,0,0,0,0,0,0,0,0,0,0,0,0,0,.05v0l.09.15v0l0,.06v0l0,.06h0l.14.24h0l0,.07h0q1.85,3.32,3.55,6.7h0l0,.07h0l0,.08h0l.08.16v0l0,.06,0,0,0,0,0,0,0,.05v0l0,.07,0,0,0,0,0,.05,0,0,0,.05v0l0,.05v0l.11.22a2.48,2.48,0,0,0,1.12,1.12,2.49,2.49,0,0,0,.19,1.58v0l0,.05v0l0,.05,0,0,0,0,0,0,0,.06v0l0,.08h0l0,.07v0l0,.06,0,0,0,.06v0l0,.07h0l0,.08v0l0,.06v0l0,.05,0,0,0,0v0l0,.06v0l0,.08v0l0,.05,0,0,0,0v0l0,.05v0l0,.06v0l0,.08,0,0,0,0v0l0,.05,0,0,0,.05,0,0,0,0,0,.05,0,0v0l0,.05,0,0,0,0v0l0,.05v0l0,.08,0,0,0,0,0,0,0,0v0l0,0,0,0,0,0v0l0,.07v0l0,0,0,0,0,0,0,0v0l0,0,0,0,0,0,0,.08,0,0v0l0,.05,0,0,0,0,0,0v0l0,0,0,.08v0l0,.05,0,0,0,0v0l0,0,0,0,0,0v0l0,.1v0l0,.05,0,0,0,.05v0l0,0v0l0,.05h0l0,.12h0l0,.05,0,0,0,.05v0l0,0v0l.08.18v0l0,.05v0l0,0,0,0,0,0v0l.08.18v0l0,.05v0l0,.05v0l0,0v0l.08.18v0l0,0,0,0,0,0v0l0,.05v0l.05.12h0l0,0v0l0,0v0l0,0,0,0,0,.05v0l0,.08,0,0,0,0v0l0,0,0,0,0,0v0l0,0,0,.06v0l0,0,0,0,0,.05v0l0,.06,0,0,0,.06v0l0,.09h0l0,.08v0l0,.06v0l0,.07h0l.1.25h0l0,.08h0l0,.08h0c.4.95.79,1.91,1.17,2.87a2.53,2.53,0,0,0,1,1.2,2.52,2.52,0,0,0,.07,1.58l.06.16v0l0,.07h0c.05.14.11.27.16.4h0l0,.09v0l0,0,0,.06v0l0,.07h0l0,.07h0l0,.07h0l0,.07h0l0,.07h0l0,.07h0l0,.07h0l0,.07h0l0,.07h0l0,.07h0l0,.07h0l0,.07h0l0,.07h0c.25.67.5,1.33.74,2h0l0,.08h0l0,.07h0l0,.07h0l0,.07h0l0,.07h0l0,.07h0l0,.07v0l0,.06v0l0,.06v0l0,.06v0l0,.06v0l0,.05v0l0,0v0l0,.05v0l0,.06v0l0,.06v0l0,.05v0l0,0v0l0,.05v0l0,0v0l0,.05v0l0,.08,0,.06v0l0,.06v0l0,.05v0l0,.05v0l0,.06v0l0,.05v0l0,.05v0l0,.05v.09l0,0v.08l0,.05v0l0,0v0l0,.06v0l0,.06v0l0,0v0l0,.06v0l0,.06v0l0,.06v0l0,.05v0l0,.06v0l0,.06v0l0,.07v0l0,.06v0l0,.07h0l0,.07h0l0,.08h0l0,.08h0c.08.22.15.44.23.67h0l0,.07h0l0,.07v0l0,.06v0l0,.05v0l0,.06v.11l0,.05v0l0,0v0l0,.05v.12l0,0v0l0,0v.08l0,.05v.08l0,0v.08l0,.06v0l0,.06v0l0,.06v0l0,.07h0l0,.07h0c.11.33.21.65.31,1a2.52,2.52,0,0,0,.94,1.29,2.47,2.47,0,0,0-.06,1.57q.84,2.85,1.56,5.73h0l.05.17h0v0h0l0,.16h0l0,.16v.07h0V237l0,.07v.1l0,.07v.1l0,.07h0v.06h0l0,.06h0v.06h0v.06h0l.06.26h0l0,.06h0l.06.27h0v.06h0v.06h0v.12h0l0,.06v.24c.21.94.42,1.89.62,2.84h0a2.53,2.53,0,0,0,.81,1.37,2.41,2.41,0,0,0-.22,1.57q.71,3.74,1.2,7.5v.2h0c.18,1.39.34,2.78.49,4.17a2.52,2.52,0,0,0,.65,1.44,2.49,2.49,0,0,0-.36,1.53c0,.19,0,.38.05.57h0v.41h0c0,.13,0,.26,0,.39h0v.4h0v.09h0v.18h0c0,.28,0,.56.07.84h0v.09h0v2.88h0v.06h0c0,.13,0,.26,0,.4h0V266h0V266h0v.06h0v.06h0v.06h0v.06h0v.06h0v.06h0v.06h0v.06h0v.06h0v.06h0v.07h0v.07h0V267h0V267h0v.07h0v.07h0c0,1.45.07,2.91.07,4.36a2.48,2.48,0,0,0,.51,1.49,2.48,2.48,0,0,0-.52,1.5h0v.13h0v.13h0v.13h0v.13h0v.13h0c0,1.88-.06,3.76-.09,5.64v.08h0v0h0v0h0v0h0v0h0v0h0v0h0v.08h0c0,1.08-.11,2.16-.21,3.24h0v.08h0v0h0v0h0v.06h0c-.05.57-.11,1.14-.17,1.7v.07a2.52,2.52,0,0,0,.35,1.54,2.55,2.55,0,0,0-.65,1.44c-.12,1.13-.26,2.26-.39,3.39l0,.31-.07.62v0h0l-.09.78v.1h0v0h0v0h0v.05h0v.05h0V295h0v0h0v.05h0v.05h0v.05h0v.05h0v0h0v0h0v.05h0v.05h0v.05h0c-.25,2-.56,3.92-.9,5.87a2.44,2.44,0,0,1-.57,2.94c-.07.38-.15.75-.22,1.12v0h0v0h0l0,.11h0l-.45,2.08h0v.05h0v.06q-.92,4.13-2,8.18a2.4,2.4,0,0,1-.81,2.88v0h0l-.06.17v0l0,.05h0l0,.12h0l0,.06h0l-.06.18h0l-.06.19h0v.06h0l-.05.18h0l-.06.17v0l0,.06h0l-.05.18v0l-.05.17v.07h0l0,.12h0l0,.06h0l-.05.17v0l0,0v0l0,.09v0l0,.05v0l0,.09v.09l0,0v0l0,.09v.11l0,.06V322l0,0,0,.07v.11l0,.06v0l0,.06v0l0,.05v0l0,.07v.11l0,.07h0l0,.07v0l0,.06v0l0,.08v0l0,.06v0l0,.08h0l0,.07v0l0,.08h0l0,.09h0l0,.07h0l-.05.17h0l-.05.17h0c-.7,2.13-1.45,4.26-2.23,6.37a2.45,2.45,0,0,0-.06,1.58,2.52,2.52,0,0,0-1,1.22c-.67,1.71-1.38,3.41-2.11,5.11h0l0,.06h0l0,.06h0l-.14.3h0l0,.05v0l0,0v.08l0,0v.08l0,0v0l-.05.12v0l0,0v.09l0,0v.09l0,0v.05l0,0v.06l0,0v0l0,.05v0l0,0v.06l0,0v.06l0,0V340l0,0v0l0,0v0l0,.06h0l0,.08h0l0,.08h0l0,.09h0c-.54,1.2-1.1,2.4-1.66,3.58h0l0,.07a2.49,2.49,0,0,0-.2,1.58,2.43,2.43,0,0,0-1.12,1.12c-.75,1.49-1.51,3-2.3,4.42h0l0,.08h0l0,.07h0l0,.08h0l0,.07v0l0,.06v0l0,.06,0,0,0,.06v0l0,.05,0,0,0,.05v0l0,0,0,0,0,.05,0,0,0,.05,0,0,0,0,0,0,0,0,0,.05,0,0,0,0,0,0,0,.05,0,0,0,.05,0,0,0,.05,0,0,0,.05v0l0,.05,0,0,0,.05v0l0,.06v0l0,.06v0l0,.06v0l0,.07h0l0,.07h0l0,.07h0q-1.08,1.92-2.2,3.81a2.53,2.53,0,0,0-.33,1.55,2.49,2.49,0,0,0-1.22,1c-.39.63-.79,1.27-1.2,1.91h0l-.05.07v0l0,.06,0,0,0,0q-1.38,2.17-2.85,4.31h0l-.05.07v0l0,.06,0,0,0,0,0,0,0,.05,0,0,0,0,0,.05,0,0,0,.05,0,0,0,.05v0l0,.06,0,0,0,.06v0l0,.06h0l-.05.07h0l0,.07h0l-.05.06h0l-.05.07h0l-.06.07h0c-.54.78-1.08,1.54-1.64,2.31a2.44,2.44,0,0,0-.46,1.5,2.52,2.52,0,0,0-1.31.9q-3.17,4.2-6.61,8.23h0l-.06.07h0l-.06.07h0l-.06.06h0l-.05.06h0l-.05.07h0l-.06.06h0l-.05.06h0l-.05.06v0l-.05.05,0,0-.05.06h0l-.05.06h0l-.06.07h0l-.07.08h0l-.12.14a2.44,2.44,0,0,1-2,2.24c-.41.46-.83.91-1.24,1.36h0l-.05.06h0l-.05,0h0l-.05.06h0l-.05,0h0l-.05.06h0l-.05,0,0,0-.09.1h0l0,0,0,0,0,0,0,0,0,0,0,0,0,0,0,0,0,0,0,0,0,0,0,.05,0,0-.05.05v0l0,.05h0l-.05.06h0q-3,3.14-6.08,6.11a2.48,2.48,0,0,0-.73,1.4,2.46,2.46,0,0,0-1.45.64c-1,.93-2,1.85-3.08,2.75h0l-.07.06h0l-.07.06h0l-.06.06h0l-.07.06h0l-.28.24,0,0-.05,0,0,0,0,0,0,0,0,0,0,0,0,0,0,0,0,0,0,0,0,0,0,0,0,0,0,0,0,0-.38.32h0l-.06.06h0l-.06.05h0l-.06.06h0q-2.16,1.83-4.39,3.59a2.43,2.43,0,0,0-.87,1.33,2.48,2.48,0,0,0-1.5.5l-1.1.82h0l-.06,0h0l-.05,0h0l-.05,0h0l0,0,0,0,0,0,0,0,0,0,0,0,0,0,0,0h0l-.05,0h0l-.05,0h0l-.05,0h0l-.06,0h0l-.06.05h0l-.06.05h0l-.06.05h0q-3.39,2.47-6.91,4.77h0l-.06,0h0l0,0h0l0,0,0,0,0,0,0,0h0l0,0h0l-.29.19h0l0,0h0l0,0-.11.07a2.56,2.56,0,0,0-1,1.24h-.23a2.5,2.5,0,0,0-1.31.37q-5.12,3.17-10.42,5.94a2.45,2.45,0,0,0-1.1,1.15,2.31,2.31,0,0,0-.46-.05,2.49,2.49,0,0,0-1.11.27q-2.53,1.26-5.11,2.45h0l-.18.08h0l0,0h0l-.05,0h0l-.08,0h0l0,0,0,0h0l-.06,0h0l-.06,0h0l-.06,0h0l-.16.07h0l-.08,0h0q-2.35,1.07-4.74,2.06a2.53,2.53,0,0,0-1.19,1,2.39,2.39,0,0,0-.66-.09,2.46,2.46,0,0,0-.92.17l-.49.2h0l0,0h-.11l-1.11.43h0l-.09,0h0l-.06,0h0l-.06,0h0l-.07,0h0l-.08,0h0l-.08,0h0l-.06,0h0l-.06,0h0l-.17.06h0l-.07,0h0l-.07,0h0l-.18.06h0l-.08,0h0l-.07,0h0l-.08,0h0l-.18.07h0l-.09,0h0l-.08,0h0l-.27.1h0l-.09,0h0q-2.4.88-4.83,1.68h0l-.07,0h0l-.08,0h0l-.08,0h0l-.08,0h0l-.06,0h0l-.06,0h0l-.06,0,0,0h-.05l0,0h0l-.06,0h0l-.06,0h0l-1.5.47a2.58,2.58,0,0,0-1.28.93,2.37,2.37,0,0,0-.88-.16,2.42,2.42,0,0,0-.7.1H209l-.06,0h-.12l-.06,0h0l-.06,0h-.12l-.06,0h-.12l-.06,0h0l-.05,0h-.13l-.08,0h0l-.09,0h0l-.06,0h-.13l0,0h-.08l0,0h-.13l-.05,0h-.13l-.06,0H207l-.06,0h-.11l-.07,0h0l-.51.14h0l-.07,0h0l-.08,0h0l-.08,0h0l-.08,0h0l-.08,0h0l-.08,0h0l-.09,0h0l-.08,0h0c-2.27.61-4.57,1.16-6.87,1.67H198l-.06,0h-.09l-.09,0h0l-.38.08a2.45,2.45,0,0,0-1.37.8,2.44,2.44,0,0,0-1.1-.26,2.5,2.5,0,0,0-.47.05l-2,.36h0l-.12,0h-.49l-.12,0h-.2l-.12,0h0l-.12,0h0c-1,.16-2,.31-2.93.44h0l-.12,0H188l-.12,0h0l-.12,0h-.2l-.12,0h-1.37l-.67.07h-.21l-1.6.19-.71.08h-.31a2.5,2.5,0,0,0-1.43.68,2.51,2.51,0,0,0-1.29-.36h-1c-.46,0-.91.09-1.37.12h-.31c-3.2.24-6.39.37-9.6.42a2.47,2.47,0,0,0-1.48.53,2.46,2.46,0,0,0-1.5-.5H159q-3.18-.08-6.35-.27h-.15a2.48,2.48,0,0,0-1.37.41,2.53,2.53,0,0,0-1.46-.61l-2.3-.2h-.63l-.19,0H146l-.21,0h-.09l-.29,0h-.08l-.29,0H145l-.22,0h-.09l-.29,0h-.09l-.21,0h-.17l-.19,0h-.57l-.1,0h-1.3l-.09,0h-.2l-.19,0h-.1l-.28,0h-.1l-.29,0h0l-2-.28h-.1l-.28,0h0l-.07,0h0l-.18,0h-.14l-.37,0a2.42,2.42,0,0,0-1.19.3,2.53,2.53,0,0,0-1.4-.75l-.92-.16h0l-.18,0h0l-.17,0h0l-.08,0h-.2l-.07,0h0l-.08,0h-.11l-.07,0h-.3l-.07,0h-1l-.07,0H131l-.07,0h-.48l-.07,0H130l-.08,0h0l-.17,0h0l-.17,0h0l-.17,0h0l-.17,0h0l-.18,0h0l-.18,0h0q-2.89-.62-5.76-1.35a2.54,2.54,0,0,0-.61-.07,2.62,2.62,0,0,0-1,.19,2.5,2.5,0,0,0-1.32-.88l-.53-.15h0l-.08,0h0l-.06,0h0l-.08,0h0l-.07,0h-.11l-.08,0h0l-.07,0h-.11l-.07,0h-.11l-.06,0h0l-.08,0h0l-.07,0h0l-.06,0h0l-.08,0h0l-.06,0h0l-.06,0h0l-.08,0h0l-.07,0h0l-.06,0h0l-.08,0h0l-.07,0h0l-.07,0h0l-.09,0h0l-.07,0h0l-.07,0h0l-.08,0h0l-.07,0h0l-.16,0h0l-.07,0h0l-.16,0h0l-.07,0h0l-.17-.05h0l-.08,0h0l-.17-.05h0l-.08,0h0l-.17-.05h0q-3.69-1.12-7.3-2.41a2.74,2.74,0,0,0-.84-.14,2.67,2.67,0,0,0-.75.11,2.5,2.5,0,0,0-1.23-1h0l-.08,0h0l-.08,0h0l-.17-.06h0l-.17-.07h0l-.27-.1h0c-2.12-.82-4.23-1.68-6.32-2.6h0l-.43-.18h0l-.16-.07h0l-.08,0h0l-.17-.07h0l-.16-.07h0l-.07,0h0l-.08,0h0l-.07,0h0l-.08,0h0l-.07,0h0l-.07,0h0l-.08,0h0l-.06,0h0l-.07,0h0l-.06,0h0l-.06,0h0l-.07,0h0l-.05,0h0l-.06,0,0,0,0,0h0l-.05,0,0,0,0,0,0,0h0L96,422.7h0l0,0h0l-.1,0h0l0,0h0l-.16-.08h0l-.8-.38a2.47,2.47,0,0,0-1.06-.23,2.21,2.21,0,0,0-.51.05,2.5,2.5,0,0,0-1.13-1.12l-1.23-.61h0l0,0h0l0,0h0l0,0h0l-.05,0h0l0,0h0l-.06,0h0c-.84-.43-1.68-.86-2.52-1.31l-.09,0,0,0,0,0,0,0,0,0-.2-.1h0l-.06,0h0l-2.11-1.15h0l-.31-.17h0l-.07,0h0l-.22-.12h0l-.07,0h0l-.07,0h0l-.14-.08h0l-.06,0h0l0,0,0,0,0,0h0l-.12-.07,0,0,0,0,0,0,0,0,0,0-.07,0,0,0,0,0,0,0,0,0,0,0,0,0-.08-.05,0,0-.06,0,0,0,0,0,0,0-.06,0,0,0-.07,0,0,0-.05,0,0,0,0,0,0,0-.08-.05,0,0,0,0,0,0,0,0,0,0,0,0-.11-.06h0l-.06,0,0,0-.06,0h0l-.29-.17h0l-.25-.15a2.55,2.55,0,0,0-1.27-.34H80a2.49,2.49,0,0,0-1-1.21c-1.22-.75-2.43-1.51-3.62-2.28h0l-.08-.05h0l-.07-.05h0l-.07-.05h0l-.07-.05h0l-.06,0h0l-.07,0h0l-.06,0h0l-.06,0h0l-.06,0h0l-.27-.18,0,0,0,0,0,0,0,0,0,0,0,0,0,0,0,0-.05,0,0,0-.05,0,0,0,0,0,0,0,0,0h0l-.06,0h0l-.06,0h0l-.07,0h0l-.07-.05h0l-.07-.05h0q-2.26-1.51-4.47-3.09a2.46,2.46,0,0,0-1.45-.47h-.07a2.49,2.49,0,0,0-.91-1.3q-4.8-3.57-9.38-7.47a2.46,2.46,0,0,0-1.47-.59,2.51,2.51,0,0,0-.8-1.38q-1.66-1.47-3.3-3h0l-.06-.06h0l0-.05h0l-.05-.05h0l0-.05h0l0,0,0,0,0-.05h0l0,0,0,0-.05-.05h0L51,392.2h0l-.07-.07h0l0-.05,0,0-.07-.06v0l-.06-.05,0,0-.06,0h0l-.07-.07,0,0-.05,0,0,0-.06-.07h0l0-.05,0,0,0-.05,0,0-.06-.06,0,0,0-.05,0,0-.06-.05,0,0-.05-.05,0,0,0,0,0,0-.06-.05,0,0,0,0,0,0,0,0,0,0-.06-.05,0,0,0,0,0,0,0,0,0-.05,0,0,0,0,0,0,0,0-.06,0,0,0,0,0,0,0,0,0-.06-.06,0,0,0,0,0,0,0,0v0l-.08-.07,0,0,0,0,0,0-.15-.14v0l0,0h0l-.09-.09h0l-.05-.05h0l-.15-.14v0l-.05,0h0l-.16-.15h0l-.15-.15h0l0-.05h0l-.15-.14h0l-.05-.05h0l-.16-.15h0l-.16-.15h0l0-.05h0l-.15-.16h0l-.15-.15h0l-.05-.05h0l-.14-.15h0l0,0h0l-.1-.1h0l0-.05h0l-.14-.14,0,0,0,0a2.43,2.43,0,0,0-1.42-.72,2.49,2.49,0,0,0-.66-1.43q-2.15-2.25-4.18-4.58h0l-.19-.21h0l0-.07h0l-.18-.2h0l0-.06h0l0-.06h0l-.12-.14h0l-.06-.06v0l0-.05h0l-.05-.07h0l-.06-.07h0l0-.06h0l-.05-.05v0l0-.06h0l-.06-.06h0l-.05-.06,0,0,0,0,0,0,0,0h0l0-.07h0l-.06-.06v0l0-.05v0l0-.05,0,0-.05-.06h0l0-.06,0,0,0,0,0,0,0,0,0,0,0-.05h0L38,378.5h0l0-.06,0,0,0,0,0,0,0-.06h0l-.06-.07h0l-.06-.07h0l0-.05,0,0,0-.06h0l-.12-.14h0l0-.06v0l-.05-.06h0l-.12-.15h0l-.06-.06h0l-.06-.07h0l-.9-1.09a2.42,2.42,0,0,0-1.33-.84,2.56,2.56,0,0,0-.53-1.5l-.92-1.18h0l-.23-.3h0l-.17-.22h0l0-.07h0l0-.06v0l-.11-.14h0l-.05-.07v0l0,0,0,0,0-.05v0l0-.07h0l0-.05,0,0,0,0,0,0,0,0,0,0,0,0,0,0,0,0,0,0,0,0,0,0,0,0,0,0,0,0L32,371h0l0,0,0,0,0,0,0,0,0,0,0,0-.11-.16h0l0-.05v0l0,0h0c-.06-.07-.11-.15-.17-.23h0l-.05-.05h0q-2.12-2.87-4.1-5.84h0l0-.06h0l0,0a2.47,2.47,0,0,0-1.25-1,2.54,2.54,0,0,0-.39-1.54l0,0,0-.05,0,0,0,0,0,0,0,0,0,0,0-.05,0,0-.09-.16h0l0-.07v0l0-.06v0l0-.06h0l0-.07h0l0-.07h0l-.19-.32h0l0-.08h0l0-.07h0l-.29-.48h0l-.05-.08h0q-2.58-4.16-4.88-8.45a2.47,2.47,0,0,0-1.15-1.07,2.47,2.47,0,0,0-.24-1.57q-1.29-2.52-2.5-5.09h0l0-.07h0l0-.06h0c0-.09-.08-.18-.13-.27v0l0,0v0l0,0,0,0,0,0,0,0,0,0,0-.05v0l-.08-.16h0l0-.07v0l0-.07h0l0-.07h0l0-.08h0c-.67-1.48-1.33-3-2-4.47a2.48,2.48,0,0,0-1-1.19,2.53,2.53,0,0,0-.1-1.58l-.72-1.85h0l0-.08h0l0-.07h0l0-.07h0l0-.06v0l0-.06v0l0-.06h0l0-.06v0l0-.06v0l0-.06v0l0-.06h0l0-.07h0l-.07-.19,0,0v0l0,0v0l0-.05v0l0-.05v0l0-.05v0l0-.05v0l0-.05v0l0-.05v0l0,0v0l0-.06v0l0-.06v0l0-.06v0l0-.07h0l-.18-.49h0l0-.08h0l0-.07h0l0-.07h0l0-.07h0l0-.08h0l0-.08h0c-.43-1.17-.84-2.36-1.25-3.55h0l0-.08h0l0-.08h0l0-.08h0l0-.08h0l0-.09h0c-.07-.22-.14-.44-.22-.66h0l0-.07h0l0-.07v0l0-.07h0l0-.07v0l0-.06v0l0-.06V325l0-.05v0l0-.06v0l0-.06v0l0-.07h0l0-.09,0-.08v0l0-.06v0l0,0v-.06H8L8,324H8l0,0,0-.07h0l0-.1a2.47,2.47,0,0,0-.94-1.27A2.44,2.44,0,0,0,7,321c-.21-.72-.43-1.44-.64-2.16h0l0-.08h0l0-.08h0l0-.18h0l0-.08v0l0-.07v-.11l0,0V318l0-.08v0l0-.05v-.16l0,0v-.1l0-.13H6l0-.06v-.1l0-.06v0l0-.06h0c0-.1-.06-.2-.08-.3h0l0-.08h0l0-.08h0q-.78-2.85-1.46-5.73h0l0-.08h0c0-.1,0-.21-.07-.31h0l0-.06v0l0-.05v-.2l0-.1v-.41l0-.17h0l0-.08h0A2.42,2.42,0,0,0,3.1,308a2.44,2.44,0,0,0,.19-1.58c-.11-.53-.21-1.06-.31-1.59H3l0-.08H3v0H3v0h0v0h0v-.14h0l0-.09h0l0-.12h0q-.24-1.29-.42-2.61h0v-.1h0v0h0v-.16h0v0h0v-.08h0c-.13-.93-.25-1.86-.37-2.79-.08-.68-.17-1.35-.26-2h0v-.13h0v0h0c-.08-.55-.15-1.09-.21-1.63a2.53,2.53,0,0,0-.68-1.43,2.48,2.48,0,0,0,.32-1.55l0-.33h0v-.05h0V291h0c-.2-1.67-.41-3.33-.7-5h0a1.85,1.85,0,0,1,0-.23h0v0h0v0h0v-.05h0l0-.13h0v0h0v0h0v0h0v0h0v-.08h0v-.54h0A8.4,8.4,0,0,1,0,283.43H0v0H0v0H0v0H0v0H0v0H0v0H0v0H0v-.05H0v0H0v-.06H0V283H0v-.08H0v-.06H0v-.3H0v-.09H0v-.05H0v-.08H0v0H0v-.06H0v0H0v0H0V282H0v0H0v0H0v0H0v0H0v0H0v0H0v0H0v0H0v0H0v-2a2.46,2.46,0,0,0-.5-1.5,2.41,2.41,0,0,0,.5-1.49v-12a2.43,2.43,0,0,0-.5-1.49,2.41,2.41,0,0,0,.5-1.49v-12a2.46,2.46,0,0,0-.5-1.5,2.44,2.44,0,0,0,.5-1.5v-12a2.46,2.46,0,0,0-.5-1.5,2.44,2.44,0,0,0,.5-1.5v-12a2.46,2.46,0,0,0-.5-1.5,2.44,2.44,0,0,0,.5-1.5v-12a2.46,2.46,0,0,0-.5-1.5,2.42,2.42,0,0,0,.5-1.5v-12a2.46,2.46,0,0,0-.5-1.5,2.46,2.46,0,0,0,.5-1.5H0v-12a2.46,2.46,0,0,0-.5-1.5,2.44,2.44,0,0,0,.5-1.5v-12a2.46,2.46,0,0,0-.5-1.5,2.44,2.44,0,0,0,.5-1.5v-12a2.43,2.43,0,0,0-.5-1.49,2.41,2.41,0,0,0,.5-1.49v-12a2.46,2.46,0,0,0-.5-1.5,2.41,2.41,0,0,0,.5-1.49v-12a2.46,2.46,0,0,0-.5-1.5,2.44,2.44,0,0,0,.5-1.5v-12a2.46,2.46,0,0,0-.5-1.5,2.44,2.44,0,0,0,.5-1.5v-12a2.46,2.46,0,0,0-.5-1.5A2.41,2.41,0,0,0,0,81.67v-12a2.43,2.43,0,0,0-.5-1.49,2.44,2.44,0,0,0,.5-1.5v-12a2.46,2.46,0,0,0-.5-1.5A2.41,2.41,0,0,0,0,51.67v-12a2.46,2.46,0,0,0-.5-1.5A2.41,2.41,0,0,0,0,36.67v-12a2.46,2.46,0,0,0-.5-1.5A2.41,2.41,0,0,0,0,21.67v-12a2.46,2.46,0,0,0-.5-1.5A2.44,2.44,0,0,0,0,6.66V3H0V2.88H0V2.72c0-.31,0-.62,0-.94H0v0H0v0H0v0H0v0H0V1.5H0v0H0v0H0a1.48,1.48,0,0,0,0-.21H0v0H0v0H0S0,1.08,0,1H0V1H0V1H0v0H0V.85A.74.74,0,0,1,.8.05,13.29,13.29,0,0,1,2.21,0H5.75a2.46,2.46,0,0,0,1.5-.5,2.46,2.46,0,0,0,1.5.5h12a2.5,2.5,0,0,0,1.49-.5,2.5,2.5,0,0,0,1.5.5H45.61a2.53,2.53,0,0,0,1.5-.5A2.5,2.5,0,0,0,48.6,0h12a2.46,2.46,0,0,0,1.5-.5,2.46,2.46,0,0,0,1.5.5H75.08l.47,0h.17a2.49,2.49,0,0,0,2.49-2.39A2.49,2.49,0,0,0,75.82-5c-.44,0-.86,0-1.29,0H63.61a2.53,2.53,0,0,0-1.5.5,2.53,2.53,0,0,0-1.5-.5h-12a2.53,2.53,0,0,0-1.5.5,2.53,2.53,0,0,0-1.5-.5ZM163.61,187.93h-3.36c-1.39.06-2.77.15-4.15.27H156l-.2,0h-1.91l-.24,0a2.44,2.44,0,0,0-1.42.66,2.55,2.55,0,0,0-1.16-.29,2.43,2.43,0,0,0-.38,0h-.47q-1.87.3-3.75.69H146l-.06,0h-.13c-2.16.47-4.31,1-6.42,1.63h0l-.11,0h0l-.06,0H139a2.47,2.47,0,0,0-1.28.9,2.53,2.53,0,0,0-.77-.12,2.48,2.48,0,0,0-.8.13h0l-.06,0h0l-.07,0h0l-.26.09h0l-.07,0h0l-.06,0h0l-.32.11h0l-.07,0h0l-.07,0h0l-.26.09h0l-.07,0h0l-.06,0h0l-.06,0h0l-.06,0h0l0,0h-.09l0,0h0l0,0h0l-.05,0h-.13l0,0H134l0,0h-.1l0,0h-.09l-.05,0h-.09l0,0h0l-.05,0h0l0,0h0l-.05,0h0l-.06,0h0l-.05,0h0l0,0h0l0,0h0l-.06,0h0l-.06,0h0l-.07,0h0l-.06,0h0l-.06,0h0l-.07,0h0q-2.41.94-4.78,2h0l-.06,0h0l-.06,0h0l-.07,0h0l-.06,0h0l0,0h0l0,0h0l0,0h0l0,0h-.06l-.1.05h0c-.7.33-1.4.67-2.09,1a2.48,2.48,0,0,0-1.11,1.11,1.94,1.94,0,0,0-.34,0,2.47,2.47,0,0,0-1.2.31,84.45,84.45,0,0,0-7.4,4.57h0l-.11.07h0l-.06,0h0l-.1.07h0l-.1.07h0l0,0h0l-.05,0h0l0,0h0l0,0h0l0,0h0l0,0,0,0,0,0,0,0,0,0h0l0,0,0,0h0l0,0h0l-.06.05h0l0,0h0l-.11.08h0l-.14.11h0l-1.36,1a2.55,2.55,0,0,0-.9,1.29,2.45,2.45,0,0,0-1.46.55,84.17,84.17,0,0,0-8.19,7.53h0l0,.05h0l-.05.05h0l0,0h0l0,0h0l0,0h0l0,0h0l0,0h0l0,0h0l0,0,0,0,0,0,0,0,0,0,0,0,0,0,0,0,0,0,0,0a2.52,2.52,0,0,0-.66,1.43,2.42,2.42,0,0,0-1.35.79c-.52.6-1,1.2-1.55,1.82h0l-.11.13h0l0,0h0l-.11.14h0l0,0h0l-.11.13h0l0,0h0l0,0h0l0,.05h0l0,0h0l0,0h0l0,0h0l0,0h0l0,0v0l0,0v0l0,0v0l0,0v0l0,0,0,0,0,0h0l0,0,0,0v0l0,0h0l0,0v0l0,0v0l0,0v0l0,0v0l0,0,0,0-.07.09h0l0,0h0l0,0h0l-.08.1h0l0,0h0l0,0h0l-.08.1h0l0,0h0l-.12.15h0l0,0h0q-2.11,2.72-4,5.59a2.45,2.45,0,0,0-.41,1.51,2.5,2.5,0,0,0-1.19,1q-.83,1.35-1.59,2.73h0l-.09.16h0l0,.05h0l-.09.15h0l0,0h0l-.08.15h0l0,.05h0l-.06.1h0l0,0h0l0,0h0l-.06.1h0l0,0h0l0,0h0l0,.09v0l0,0v0l0,0v0l0,0h0l0,0v.07l0,0h0l0,.05h0l0,0h0v0h0l0,0h0l0,.05h0l0,0v.07l0,0v0l0,0v0l0,0v.07l0,0v0l0,0v.07l0,0v0l0,0v0l0,0v.07l0,0v0l0,0h0v.06l0,0v.07l0,0h0l0,0v0l0,0v.07l0,0v0l0,0v.07l0,0v0l0,0h0v.06l0,0v0l0,0h0l0,0v0l0,0v.07l0,0h0l0,.05h0l0,0h0l0,0h0l0,.1h0l0,0h0l0,0h0l0,.1h0l0,0h0l0,0h0l-.05.1h0l0,0h0l0,0h0l-.05.11h0l0,0h0c-.56,1.15-1.08,2.32-1.59,3.5a2.48,2.48,0,0,0-.12,1.56,2.49,2.49,0,0,0-1,1.21,84.62,84.62,0,0,0-3.52,11.46,2.47,2.47,0,0,0,.14,1.57,2.46,2.46,0,0,0-.76,1.37h0v.36h0v.14h0v.07h0v0h0v.08h0l0,.06h0l0,.12h0v.07h0v.15h0v.78h0v.06h0v.06h0v.06h0v.06h0v.07h0l0,.14h0v.07h0c0,.07,0,.14,0,.21h0c-.08.52-.16,1-.23,1.56h0v.07h0v.07h0v.07h0v.11h0v.05h0v.05h0V262h0V262h0l0,.11h0v0h0q-.45,3.44-.65,6.87a2.49,2.49,0,0,0,.41,1.52,2.47,2.47,0,0,0-.53,1.48v.13h0v0c0,.21,0,.42,0,.63v.24h0v.09h0v0h0v0h0v0h0a81.31,81.31,0,0,0,.69,10.69,2.57,2.57,0,0,0,.68,1.41,2.44,2.44,0,0,0-.27,1.54c.06.38.12.76.19,1.13h0v.05h0v.06h0v.42h0v.09h0l0,.13h0v0h0a80.42,80.42,0,0,0,2.28,9.46h0l0,.17v.1a2.52,2.52,0,0,0,.92,1.28,2.42,2.42,0,0,0,0,1.57c.48,1.33,1,2.64,1.5,3.94h0l0,0h0l0,0h0l.07.17h0v.08h0v0h0l.06.17h0v0h0v0l0,0h0l0,.11v0l0,0v0l0,0v0l0,0v0l0,0v.23l0,0v0l0,0V307h0l0,0h0l0,.1h0l0,.05h0l0,0h0l0,0h0l.07.15h0l0,0h0l0,.05h0c.74,1.71,1.54,3.38,2.37,5a2.48,2.48,0,0,0,1.12,1.1,2.49,2.49,0,0,0,.29,1.54q1.22,2.19,2.54,4.28h0l0,0h0l0,0h0l.15.24h0l0,0h0l0,0h0l.15.23h0l0,0h0l0,0h0c0,.06.09.12.13.19h0l0,0h0l0,0h0l0,0h0l.12.19h0l0,0h0l0,0h0l.12.2h0l0,0h0l0,0h0c1,1.42,1.94,2.82,3,4.18a2.47,2.47,0,0,0,1.29.89,2.52,2.52,0,0,0,.57,1.47,82.91,82.91,0,0,0,5.65,6.23h0l0,0h0l0,0h0l0,0h0l.13.12h0l0,0h0l0,0h0l0,0,0,0,0,0,0,0h0l0,0,0,0h0l0,0,0,0,0,0h0v0l0,0,0,0,0,0h0l0,0h0l0,0h0l0,0h0l0,0v0l0,0h0l0,0h0l0,0h0l.07.08h0l0,0h0l0,0h0l0,0h0l0,0h0l.12.11h0l0,0h0l0,0h0l0,0h0l.2.19h0l1,1A2.48,2.48,0,0,0,107,337a2.47,2.47,0,0,0,.81,1.35q1.91,1.62,3.93,3.17h0l.12.09h0l.05,0h0l.06.05h0l0,0h0l.06.05h0l0,0h0l.06,0h0l0,0h0l0,0v0l0,0,0,0,0,0h0l0,0,0,0,0,0,0,0,0,0,0,0,0,0,0,0h0l.06.05h0l0,0h0l.07.05h0l0,0h0l.08.05h0l0,0h0l.12.09h0l.13.09h0l1.46,1h0l.14.1h0l.14.09h0l0,0h0l.08.05h0l0,0h0l.08.05h0l0,0h0l0,0,0,0,0,0,0,0,0,0,0,0,0,0,0,0,0,0,.06,0h0l0,0h0l.06,0,0,0h0l0,0h0l0,0h0l0,0h0l0,0h0l0,0h0l0,0h0l0,0h0l0,0h0l0,0h0l0,0h0l0,0h0l0,0h0l0,0h0l.78.51a2.5,2.5,0,0,0,1.36.4H119a2.5,2.5,0,0,0,1,1.19q2.63,1.57,5.34,2.95h0l0,0h0l0,0h0l0,0h0l0,0h0l0,0h0l0,0h0l0,0h0l0,0h0l.09,0h0l0,0H126l0,0h.32l0,0h0l0,0h0l.46.22h0l0,0h0l0,0h0q1.47.71,3,1.35h0l0,0h0l0,0h0l0,0h.22l0,0h.18l.09,0h0l0,0h0l0,0h0a2.5,2.5,0,0,0,1,.2,2.47,2.47,0,0,0,.6-.08,2.5,2.5,0,0,0,1.22,1c.58.22,1.16.43,1.75.63h0l0,0h.05l.09,0h0l.34.11h.44l0,0h0l.28.1h.05l0,0h.19l0,0h0c2.08.68,4.2,1.27,6.35,1.79h.2l.09,0h0l.39.09h.44l.49.1h0l0,0H145a2.47,2.47,0,0,0,1.56-.16,2.5,2.5,0,0,0,1.38.75q4.33.79,8.86,1.18H157l.29,0h1.27l.32,0h0l1,.06H160a2.44,2.44,0,0,0,1.38-.42,2.51,2.51,0,0,0,1.47.54c.71,0,1.43,0,2.15,0h0c1.22-.07,3-.13,5-.26h.73l1.66-.14a2.57,2.57,0,0,0,1.43-.63,2.56,2.56,0,0,0,1.19.3l.35,0c2.76-.38,5.5-.92,8.22-1.57h0l.14,0h0l.13,0h.08l.06,0h.14l0,0h.38l.12,0h.05l.14,0h0c.61-.15,1.21-.31,1.81-.48h0l.08,0H187l.11,0a2.45,2.45,0,0,0,1.3-.88,2.45,2.45,0,0,0,.8.14,2.27,2.27,0,0,0,.77-.13h.11l0,0h.08l.11,0h0l0,0h0l.08,0h.06l.12,0h.06l.07,0h.06l.12,0h0l.13,0h.05l.13,0h0l.13,0h0l.18-.06h0l.13-.05h0l.31-.11h0l.62-.22h0c.42-.14.83-.3,1.24-.45h0l.44-.17h0l.3-.11h0l.13-.05h0l.17-.06h0l.13,0h0l.09,0h.05l.12,0h0l.08,0h.06l.11-.05h0l0,0h0l.07,0h0l0,0h0l.11-.05h0l.11,0h.07l.06,0h.11l.06,0h0l0,0h0l0,0h.11l0,0h.1l0,0h.06l0,0h0l.05,0h0l0,0h0l.05,0h0l.05,0h0l0,0h0l.05,0h0l0,0h0l.06,0h0l0,0h0l.05,0h0l.06,0h0l0,0h0l.12,0h0l.12-.05h0l.06,0h0l.12-.05h0l.12-.05h0c1-.44,2-.89,2.92-1.36a2.46,2.46,0,0,0,1.12-1.09,2.31,2.31,0,0,0,.37,0,2.45,2.45,0,0,0,1.17-.3q2.66-1.41,5.21-3h0l.11-.07h0l.16-.1h0l.11-.08h0l0,0h0l.08-.05h0l0,0h0l.11-.07h0l.11-.07h0l0,0h0l.07,0h0l0,0h0l.1-.06h0l0,0h0l.06,0h0l0,0,.06,0h0l0,0h0l0,0h0l0,0,0,0,0,0h0l0,0h0l0,0h0l0,0,0,0,0,0h0l0,0h0l0,0h0l0,0,0,0h0l0,0,0,0h0l0,0,0,0,0,0,0,0h0l0,0,0,0,0,0,0,0,0,0h0l.05,0h0l0,0,0,0,0,0h0l0,0h0l0,0,0,0,0,0h0l0,0h0l0,0h0l0,0h0l0,0h0l.05,0v0l0,0h0l.05,0h0l0,0h0l.05,0h0l0,0h0l0,0h0l0,0h0l0,0,0,0,.05,0h0l0,0h0l0,0h0l.05,0h0l0,0h0l0,0h0l0,0h0l0,0h0l0,0h0l0,0v0l.05,0h0l0,0h0l0,0h0l0,0h0l0,0h0l0,0h0l0,0h0l0,0h0l0,0,0,0,0,0h0l0,0h0l0,0h0l0,0h0l0,0h0l0,0h0l0,0h0l0,0,0,0,0,0h0l0,0,0,0h0a2.54,2.54,0,0,0,.92-1.28,2.51,2.51,0,0,0,1.48-.52q2.08-1.63,4-3.36h0l.14-.12h0l.09-.09h0l0,0v0l0,0v0l0,0,0,0,0,0,0,0h0l0,0h0l0,0h0l0,0h0L221,337h0l0,0h0c1.44-1.29,2.82-2.63,4.16-4a2.47,2.47,0,0,0,.68-1.4,2.54,2.54,0,0,0,1.36-.77l.51-.58h0l0-.05h0l.08-.09h0l0,0h0l.07-.08h0l0,0h0l0,0h0l0,0h0l0,0v0l0,0h0l0,0h0l0,0,0,0,0,0h0l0,0v0l0,0,0,0,0,0v0l0,0v0l0,0,0,0,0,0,0,0v0l0,0v0l0,0,0,0,0,0h0l0-.05h0l0,0h0l0,0h0l.08-.09h0l0,0h0l.09-.1h0l0,0h0l.08-.1h0l0,0h0l.08-.1h0l0,0h0l.08-.11h0l0,0h0l.11-.14h0l.12-.14h0l.51-.62h0q2.35-2.91,4.47-6a2.49,2.49,0,0,0,.42-1.52,2.52,2.52,0,0,0,1.22-1c.93-1.49,1.82-3,2.65-4.54h0l0,0h0l0,0h0l0,0h0l0,0h0l0,0h0l0,0h0l0,0h0l0,0h0l.12-.24h0v-.09h0l0,0v0l0,0v-.05h0l0,0h0l0,0v0l0,0h0l0,0h0l0,0h0l0,0h0l0-.05h0q1.27-2.43,2.39-4.94a2.53,2.53,0,0,0,.15-1.55,2.5,2.5,0,0,0,1-1.2v0l0-.07h0l0,0h0l0-.08h0l0-.13h0l.05-.13h0l.05-.12h0l0-.13h0l0-.08h0v0h0l0-.09h0l.05-.13h0l.05-.13h0l0-.13h0l.05-.13h0l0-.09h0v0h0l0-.08h0l.05-.13h0l0-.13h0l.05-.13h0l0-.13h0l0-.07v-.06h0l0-.07v-.06h0l0-.07v-.06h0l0-.07v-.06l0,0v-.07l0-.05v-.1l0,0v-.1l0-.05V302l0-.05v-.06l0-.05v-.09l0-.06v-.09l0-.05v-.09l0-.05v-.1l0,0v-.1l0,0v0l0-.06v-.08l0-.06v-.09l0-.06h0v-.07l0-.06v0l0-.05h0l0-.06v0l0-.06h0l0-.06v0l0-.06h0l0,0v0l0-.06h0l0-.06h0l0-.07h0l0-.06h0l0-.07h0l0-.07h0l0-.07h0l0-.13h0l.05-.14h0l0-.15h0l0-.07h0l0-.14h0l0-.14h0l0-.14h0l0-.14h0l.15-.51h0l0-.14h0l.09-.29h0l.06-.22h0l0-.14h0l0-.14h0l0-.14h0l0-.14h0l0-.07h0l0-.06h0l0-.07h0l0-.06h0l0-.06v0l0-.06h0l0-.07h0l0-.07,0-.07h0q.28-1,.54-2.1a2.61,2.61,0,0,1,.67-2.91q.19-.93.36-1.86h0v0h0l0-.13v-.28h0v0h0v0h0v0h0l0-.19h0c.28-1.63.52-3.27.7-4.93h0v-.06h0l0-.19h0v0h0V283c.13-1.28.25-2.55.34-3.82a2.42,2.42,0,0,0-.38-1.52,2.43,2.43,0,0,0,.55-1.47c0-.18,0-.36,0-.54h0v-.19h0v-.06h0v-.06h0c0-.32,0-.64,0-1v0h0v0h0v0h0v0h0v0h0v-.08h0v0h0v0h0V274h0v0h0v0h0v-.13h0v0h0v-.18h0v-.11h0v0h0v0h0v0h0v-.08h0v0h0v0h0v0h0v0h0v-.05h0v0h0v0h0v0h0v0h0v0h0v0h0v0h0c0-.6-.05-1.21-.09-1.81V271c0-.73-.09-1.47-.11-2.21h0v0h0v0h0v0h0v-.09h0v-.07h0v0h0v0h0v0h0v-.08h0v0h0v0h0v-.17h0v-.16h0v-.17h0v-.16h0v0h0v0h0v-.08h0v0h0v0h0v0h0v0h0v-.15h0V267h0v-.06h0v-.06h0v0h0v0h0c-.05-.85-.12-1.69-.21-2.54a2.52,2.52,0,0,0-.65-1.43,2.48,2.48,0,0,0,.26-1.53l-.21-1.29h0v-.16h0v-.05h0l-.3-1.7h0l0-.06v-.31l0-.15h0v-.11h0v-.11h0v-.05h0l0-.17h0V257h0V257h0v-.05h0l0-.05h0a2.5,2.5,0,0,0,0-.29h0v0h0v-.05h0c0-.11-.05-.23-.07-.34h0V256h0c0-.14-.05-.27-.08-.41h0v-.06h0c0-.12-.05-.23-.07-.35h0v-.05h0l0,0h0c0-.11,0-.23-.08-.34h0v-.06h0v-.06h0c0-.1,0-.19-.07-.29h0v0h0l0,0h0v0h0a2.86,2.86,0,0,0-.07-.28h0v0h0v-.06h0l-.06-.29h0v0h0v0h0l0-.05h0c0-.09,0-.18-.07-.28h0v-.05h0l0-.05h0v-.05h0a2.86,2.86,0,0,1-.07-.28h0l0-.05h0v-.05h0l0,0h0l-.07-.28h0l0-.06h0V252h0c-.21-.81-.43-1.61-.67-2.41a2.45,2.45,0,0,0-.89-1.28,2.45,2.45,0,0,0,0-1.56,82.54,82.54,0,0,0-4.58-11.1,2.48,2.48,0,0,0-1.11-1.11,2.49,2.49,0,0,0-.29-1.54l-.18-.33v-.05l0,0v0l0,0v-.06l0,0v0l0,0v0l0,0v0l0,0v0l0,0v0l0,0v0l0,0h0l0,0h0l0,0h0l0,0h0l0,0h0l-.15-.26h0l0,0h0l0,0v0l0,0v0l0,0v0l0,0v0l0,0v0l0,0v0l0,0v0l0,0v0l0,0v0l0,0v0l0,0v0l0,0h0l-.14-.24h0l0,0h0l0,0h0l0,0v0l0,0v0l0,0v0l0,0v0l0,0v0l0,0v0l0,0v0l0,0h0l0,0h0l0,0h0l0,0v0l0,0v0l0,0v0l0,0,0,0h0l0-.05h0l0,0h0l0-.05h0c-1.44-2.35-3-4.6-4.56-6.77a2.5,2.5,0,0,0-1.28-.91,2.54,2.54,0,0,0-.53-1.47,86.58,86.58,0,0,0-8.08-8.89,2.54,2.54,0,0,0-1.41-.67,2.49,2.49,0,0,0-.78-1.36l-.33-.29h0l0,0h0l0,0h0l0,0h0l-.12-.1h0l0,0h0l0,0,0,0,0,0h0l0,0h0l0,0h0l0,0,0,0,0,0,0,0h0l0,0v0h0l0,0,0,0h0l0,0h0l0,0h0l-.06,0h0l0,0h0l0,0h0l0,0h0l0,0h0l0,0h0l0,0h0l-.14-.12h0l0,0h0l0,0h0l0,0h0l-.21-.18h0l0,0h0l0,0h0l-.21-.18h0l0,0h0l0,0h0l-.25-.21h0l-.61-.5h0l0,0h0l-.25-.21h0l0,0h0l0,0h0l-.25-.2h0l0,0h0l0,0h0l-.18-.14h0l0,0h0l0,0h0l0,0h0l-.17-.14h0l0,0h0l0,0h0l0,0h0l0,0h0l-.1-.08h0l0,0h0l0,0h0l0,0h0l0,0h0l0,0,0,0h0l-.08-.06h0l0,0h0l0,0,0,0h0l0,0h0l0,0h0l0,0h0l0,0h0l0,0,0,0h0l0,0h0l0,0h0l0,0h0l0,0,0,0h0l0,0h0l0,0h0l0,0h0l0,0h0l0,0h0l0,0h0l0,0h0l-.08-.06h0l0,0h0l0,0h0l0,0h0l0,0h0l0,0h0l-.13-.1h0l0,0h0l0,0h0l0,0h0l0,0h0l-.26-.19h0c-1-.72-2-1.43-3-2.11a2.46,2.46,0,0,0-1.37-.41h-.14a2.45,2.45,0,0,0-1-1.2q-3-1.83-6.18-3.45h0l0,0h0l0,0h0l-.15-.08h-.13l0,0h0l0,0h-.07l0,0h-.09l0,0h0l-.09-.05h0l0,0h0l0,0h0l0,0h0c-1.15-.57-2.32-1.11-3.51-1.64a2.48,2.48,0,0,0-1-.21,2.6,2.6,0,0,0-.56.07,2.46,2.46,0,0,0-1.19-1c-.41-.17-.81-.33-1.22-.48h-.37l-.09,0h0l0,0h0l0,0h0a80.43,80.43,0,0,0-8-2.52h0l-.18,0h0l-.23,0h0l-.18,0h-.09l-.09,0h-.14l-.13,0h-.14l-.13,0h-.1l-.13,0h0a2.93,2.93,0,0,0-.58-.06,2.54,2.54,0,0,0-1,.2,2.48,2.48,0,0,0-1.36-.77l-1.24-.24h-.07l-.12,0h-2.89c-1.9-.28-3.8-.52-5.7-.69h-1.31l-.57,0h-.15a2.44,2.44,0,0,0-1.36.4,2.51,2.51,0,0,0-1.47-.53l-1.38,0h-.68Zm2,5a2.52,2.52,0,0,0,1.36-.4,2.46,2.46,0,0,0,1.38.52c2.22.14,4.6.4,7.28.8,1.32.2,2.65.43,3.95.69a2.72,2.72,0,0,0,.49.05,2.38,2.38,0,0,0,1-.21,2.4,2.4,0,0,0,1.27.76,76.49,76.49,0,0,1,10.73,3.39,2.33,2.33,0,0,0,.93.18,2.57,2.57,0,0,0,.55-.06,2.47,2.47,0,0,0,1.13,1,85.06,85.06,0,0,1,10,5.25,2.46,2.46,0,0,0,1.3.36h.14a2.44,2.44,0,0,0,.94,1.15,79.68,79.68,0,0,1,8.93,6.88,2.38,2.38,0,0,1,2.07,1.92,81.93,81.93,0,0,1,7.6,8.36,2.53,2.53,0,0,0,1.23.85,2.43,2.43,0,0,0,.49,1.41c1.54,2.09,3,4.3,4.42,6.58.58,1,1.16,2,1.7,3a2.5,2.5,0,0,0,1.07,1,2.53,2.53,0,0,0,.24,1.47,76.78,76.78,0,0,1,4.3,10.4,2.43,2.43,0,0,0,.86,1.21,2.6,2.6,0,0,0,0,1.49c.76,2.6,1.41,5.3,1.92,8,.21,1.1.38,2.09.52,3a2.52,2.52,0,0,0,.64,1.32,2.4,2.4,0,0,0-.27,1.43c.14,1.38.23,2.66.26,3.91,0,.91.07,1.79.12,2.63.06,1.07.11,2.09.11,3.05,0,.55,0,1.11,0,1.67a2.48,2.48,0,0,0,.38,1.43,2.55,2.55,0,0,0-.54,1.38c-.08,1.07-.19,2.24-.33,3.68a72.33,72.33,0,0,1-1.19,7.55,2.55,2.55,0,0,0,.15,1.48,2.44,2.44,0,0,0-.77,1.28c-.17.68-.35,1.37-.54,2.05a78.4,78.4,0,0,1-2.91,8.69,2.61,2.61,0,0,0-.12,1.48,2.53,2.53,0,0,0-1,1.12,80.64,80.64,0,0,1-5.31,9.95,2.39,2.39,0,0,1-1.55,2.38,80.34,80.34,0,0,1-6.95,8.89,2.5,2.5,0,0,0-.62,1.35,2.61,2.61,0,0,0-1.31.71,80.36,80.36,0,0,1-8.4,7.54,2.46,2.46,0,0,0-.85,1.23,2.49,2.49,0,0,0-1.42.47,83.13,83.13,0,0,1-9.58,6,2.47,2.47,0,0,0-1,1.06,2.43,2.43,0,0,0-.38,0,2.51,2.51,0,0,0-1.09.25,78.8,78.8,0,0,1-10.46,4.21,2.57,2.57,0,0,0-1.22.86,2.36,2.36,0,0,0-.8-.13,2.59,2.59,0,0,0-.68.09c-.92.26-1.86.51-2.8.74a81.31,81.31,0,0,1-8.25,1.61,2.45,2.45,0,0,0-1.34.62,2.4,2.4,0,0,0-1.19-.31h-.24c-1.93.18-3.87.27-5.43.35l-1.64.08c-.63,0-1.26,0-1.88,0h-.07a2.51,2.51,0,0,0-1.38.41,2.53,2.53,0,0,0-1.4-.53,88.71,88.71,0,0,1-11.29-1.32,3.42,3.42,0,0,0-.45,0,2.57,2.57,0,0,0-1,.22,2.48,2.48,0,0,0-1.29-.73,78.25,78.25,0,0,1-10.81-3.19,2.48,2.48,0,0,0-.88-.16,2.46,2.46,0,0,0-.6.07,2.44,2.44,0,0,0-1.14-.95,78.41,78.41,0,0,1-10-5.1,2.5,2.5,0,0,0-1.28-.35h-.17a2.5,2.5,0,0,0-.95-1.14c-.44-.29-.88-.57-1.31-.87a85.29,85.29,0,0,1-7.78-5.89,2.47,2.47,0,0,0-1.37-.59,2.51,2.51,0,0,0-.75-1.29,78.66,78.66,0,0,1-7.75-8.18,2.54,2.54,0,0,0-1.24-.82,2.52,2.52,0,0,0-.51-1.39,79.82,79.82,0,0,1-6.16-9.45,2.55,2.55,0,0,0-1.08-1,2.44,2.44,0,0,0-.25-1.46,88.56,88.56,0,0,1-4.48-10.42,2.45,2.45,0,0,0-.88-1.18,2.49,2.49,0,0,0,0-1.48,75,75,0,0,1-2.52-10.95,2.44,2.44,0,0,0-.67-1.35,2.41,2.41,0,0,0,.27-1.48A75.89,75.89,0,0,1,83,273.19c0-.33,0-.66,0-1a2.5,2.5,0,0,0-.41-1.43,2.52,2.52,0,0,0,.52-1.4c.13-2.28.37-4.63.69-7,.19-1.42.42-2.84.69-4.24a2.47,2.47,0,0,0-.16-1.48,2.52,2.52,0,0,0,.75-1.28,80.19,80.19,0,0,1,3.31-10.79,2.44,2.44,0,0,0,.1-1.48,2.52,2.52,0,0,0,1-1.14,79,79,0,0,1,5.14-10,2.55,2.55,0,0,0,.36-1.45,2.49,2.49,0,0,0,1.15-.94,81.35,81.35,0,0,1,6.84-9,2.46,2.46,0,0,0,.6-1.37,2.5,2.5,0,0,0,1.3-.73,80,80,0,0,1,8.27-7.69,2.51,2.51,0,0,0,.83-1.24,2.53,2.53,0,0,0,1.4-.49,80,80,0,0,1,9.49-6.12,2.55,2.55,0,0,0,1-1.08,2,2,0,0,0,.34,0,2.42,2.42,0,0,0,1.13-.28c.77-.39,1.56-.77,2.35-1.14a75.76,75.76,0,0,1,8-3.23,2.44,2.44,0,0,0,1.2-.88,2.53,2.53,0,0,0,.77.12,2.55,2.55,0,0,0,.72-.1c2.29-.69,4.66-1.28,7.06-1.77,1.32-.27,2.65-.51,4-.72a2.43,2.43,0,0,0,1.33-.65,2.56,2.56,0,0,0,1.17.29l.29,0a79.07,79.07,0,0,1,9.34-.55c.64,0,1.29,0,1.93,0Z"/><path class="cls-1" d="M502.87,188.68c-.92,0-1.62-.07-2.32-.07q-13.69,0-27.4,0c-2.46,0-2.4,0-2.4-2.48q0-36.78,0-73.55a17.45,17.45,0,0,1,.06-1.77.74.74,0,0,1,.7-.69c.52,0,1.05-.06,1.58-.06q13.62,0,27.23,0a5.81,5.81,0,0,0,2.35-.22,6.21,6.21,0,0,0,.22-1c0-.71,0-1.41,0-2.12V2.79c0-.65,0-1.3,0-1.95a.76.76,0,0,1,.78-.79c.52,0,1,0,1.58,0h72.14c.53,0,1.06,0,1.59.06a.71.71,0,0,1,.67.7c0,.59,0,1.18,0,1.77q0,13.35,0,26.7,0,36.78,0,73.56c0,1.84.36,3.62.5,5.44a9.21,9.21,0,0,0,.4,1.54,7.25,7.25,0,0,0,1.08.23c.65,0,1.3,0,1.94,0h57.64a5.2,5.2,0,0,1,2.35.23,5.86,5.86,0,0,1,.24,1c0,.53,0,1.06,0,1.59v72.68c0,.64,0,1.29-.06,1.94a.84.84,0,0,1-.92.86c-.65.05-1.3,0-1.95,0H583.16c-.59,0-1.18,0-1.77,0-1.38,0-1.57.25-1.62,1.7,0,.24,0,.47,0,.71,0,.59,0,1.18,0,1.77V433.7c0,.77,0,1.53,0,2.3s-.28.86-.87.9c-.41,0-.82,0-1.24,0H505.32c-2.18,0-2.19,0-2.21-2.13,0-.65,0-1.29,0-1.94V192.55c0-.71,0-1.42,0-2.12C503.07,189.91,503,189.39,502.87,188.68Z"/><path class="cls-2" d="M581,188.37c-.83.07-1.07.3-1.15,1.15l1.27.12-.12-1.27ZM541.87-5a2.41,2.41,0,0,0-1.22.32A2.41,2.41,0,0,0,539.43-5h-12a2.53,2.53,0,0,0-1.5.5,2.53,2.53,0,0,0-1.5-.5h-12a2.53,2.53,0,0,0-1.5.5,2.53,2.53,0,0,0-1.5-.5h-4.12c-.59,0-1.27,0-2,.06A5.75,5.75,0,0,0,498,.55c0,.7,0,1.38,0,2V5.9a2.53,2.53,0,0,0,.5,1.5,2.48,2.48,0,0,0-.5,1.5v12a2.53,2.53,0,0,0,.5,1.5,2.48,2.48,0,0,0-.5,1.5v12a2.46,2.46,0,0,0,.5,1.5,2.42,2.42,0,0,0-.5,1.5v12a2.46,2.46,0,0,0,.5,1.5,2.42,2.42,0,0,0-.5,1.5v12a2.46,2.46,0,0,0,.5,1.5,2.42,2.42,0,0,0-.5,1.5v12a2.46,2.46,0,0,0,.5,1.5,2.42,2.42,0,0,0-.5,1.5v12a2.46,2.46,0,0,0,.5,1.5,2.42,2.42,0,0,0-.5,1.5v6.17H486.68a2.53,2.53,0,0,0-1.5.5,2.48,2.48,0,0,0-1.5-.5H473.1c-.56,0-1.17,0-1.82.07a2.5,2.5,0,0,0,.2,5h.21l.25,0h.11q.52,0,1.05,0h10.59a2.47,2.47,0,0,1,3,0h12a2.48,2.48,0,0,0,1.77-.75l2.13.51a2.45,2.45,0,0,1-.91.24,3.35,3.35,0,0,0,.54-.08h.46l0-.07h0a5,5,0,0,0,.2-.89c0-.71,0-1.41,0-2.12V98.89a2.47,2.47,0,0,0-.5-1.49,2.53,2.53,0,0,0,.5-1.5v-12a2.47,2.47,0,0,0-.5-1.49,2.53,2.53,0,0,0,.5-1.5v-12a2.47,2.47,0,0,0-.5-1.49,2.53,2.53,0,0,0,.5-1.5v-12a2.48,2.48,0,0,0-.5-1.5,2.53,2.53,0,0,0,.5-1.5v-12a2.47,2.47,0,0,0-.5-1.49,2.53,2.53,0,0,0,.5-1.5v-12a2.48,2.48,0,0,0-.5-1.5,2.53,2.53,0,0,0,.5-1.5V8.9a2.48,2.48,0,0,0-.5-1.5,2.5,2.5,0,0,0,.5-1.49V2.79h0V2.25h0v0c0-.4,0-.79,0-1.19h0V1h0V1h0V1h0v0h0v0h0v0h0a.76.76,0,0,1,.78-.79c.52,0,1,0,1.58,0h4.12a2.46,2.46,0,0,0,1.5-.5,2.5,2.5,0,0,0,1.49.5h12a2.53,2.53,0,0,0,1.5-.5,2.53,2.53,0,0,0,1.5.5h12a2.41,2.41,0,0,0,1.22-.32,2.41,2.41,0,0,0,1.22.32h12a2.5,2.5,0,0,0,1.49-.5,2.53,2.53,0,0,0,1.5.5h12a2.46,2.46,0,0,0,1.5-.5,2.44,2.44,0,0,0,1.5.5h5.58c.53,0,1.06,0,1.59.06a.71.71,0,0,1,.67.7c0,.58,0,1.16,0,1.74v2a2.48,2.48,0,0,0,.5,1.5,2.53,2.53,0,0,0-.5,1.5v6.81c0,1.51,0,3,0,4.53v.67a2.47,2.47,0,0,0,.5,1.49,2.5,2.5,0,0,0-.5,1.49v6.72h0v5.29a2.42,2.42,0,0,0,.5,1.5,2.52,2.52,0,0,0-.5,1.49v12a2.48,2.48,0,0,0,.5,1.5,2.5,2.5,0,0,0-.5,1.49v12a2.47,2.47,0,0,0,.5,1.49,2.53,2.53,0,0,0-.5,1.5v12a2.41,2.41,0,0,0,.5,1.49,2.43,2.43,0,0,0-.5,1.49q0,6,0,12a2.47,2.47,0,0,0,.5,1.49,2.46,2.46,0,0,0-.5,1.5c0,1.76,0,3.51,0,5.27h0v0h0v0h0v0h0v0h0v0h0v0h0v0h0v.08h0c0,1.7.36,3.35.49,5h0v0h0l.62,0h0l-.62,0h0v0h0v.06h0v0h0v0h0v0h0l.06.26.68-.18h0l-.68.18c0,.15.09.3.13.44l0,.09s0,.1,0,.15a1.79,1.79,0,0,0,.13.32,6.48,6.48,0,0,0,1,.22c.35,0,.71,0,1.06,0h12.5a2.42,2.42,0,0,0,1.5-.5,2.45,2.45,0,0,0,1.49.5h12a2.42,2.42,0,0,0,1.5-.5,2.46,2.46,0,0,0,1.5.5h12a2.47,2.47,0,0,0,1.49-.49,2.53,2.53,0,0,0,1.5.5h12a2.5,2.5,0,0,0,1.75-.71,2.44,2.44,0,0,0,1.24.8h0a2.6,2.6,0,0,1,.36.13l0,.11h0l0,.1c0,.13.08.26.11.4h0a2.17,2.17,0,0,1,0,.25h0v0h0v0h0v0h0v0h0v0h0v0h0c0,.35,0,.7,0,1v.35h0v9a2.5,2.5,0,0,0,.5,1.49,2.48,2.48,0,0,0-.5,1.5v12a2.53,2.53,0,0,0,.5,1.5,2.47,2.47,0,0,0-.5,1.49v12a2.53,2.53,0,0,0,.5,1.5,2.47,2.47,0,0,0-.5,1.49v12a2.53,2.53,0,0,0,.5,1.5,2.48,2.48,0,0,0-.5,1.5v12a2.53,2.53,0,0,0,.5,1.5,2.48,2.48,0,0,0-.5,1.5v.66c0,.64,0,1.29-.06,1.94a.84.84,0,0,1-.92.86c-.49,0-1,0-1.47,0h-6.51a2.53,2.53,0,0,0-1.5.5,2.47,2.47,0,0,0-1.49-.5h-12a2.5,2.5,0,0,1-3,0h-12a2.5,2.5,0,0,1-3,0h-12a2.53,2.53,0,0,0-1.5.5,2.47,2.47,0,0,0-1.49-.5h-5.84l-.16,0,.12,1.27h0l-1.27-.12c0,.15,0,.32,0,.52h0v0h0v0h0v0h0v0h0v.19h0a1.09,1.09,0,0,1,0,.18h0v.18c0,.38,0,.76,0,1.15v1.59a2.53,2.53,0,0,0,.5,1.5,2.53,2.53,0,0,0-.5,1.5v12a2.53,2.53,0,0,0,.5,1.5,2.53,2.53,0,0,0-.5,1.5v12a2.53,2.53,0,0,0,.5,1.5,2.53,2.53,0,0,0-.5,1.5v12a2.53,2.53,0,0,0,.5,1.5,2.53,2.53,0,0,0-.5,1.5v12a2.53,2.53,0,0,0,.5,1.5,2.53,2.53,0,0,0-.5,1.5v12a2.53,2.53,0,0,0,.5,1.5,2.53,2.53,0,0,0-.5,1.5v12a2.54,2.54,0,0,0,.5,1.49,2.56,2.56,0,0,0-.5,1.49v12a2.53,2.53,0,0,0,.5,1.5,2.53,2.53,0,0,0-.5,1.5v12a2.47,2.47,0,0,1,0,3v12a2.5,2.5,0,0,1,0,3v12a2.5,2.5,0,0,1,0,3v12a2.5,2.5,0,0,1,0,3v12a2.47,2.47,0,0,1,0,3v12a2.5,2.5,0,0,1,0,3v12a2.49,2.49,0,0,1,0,3v12a2.49,2.49,0,0,1,0,3v12a2.5,2.5,0,0,0,1.18,2.12,2.42,2.42,0,0,0-1.39.84.81.81,0,0,1-.36.22H579l-.1,0h-.06c-.25,0-.51,0-.77,0H567.62a2.48,2.48,0,0,0-1.5.5,2.53,2.53,0,0,0-1.5-.5h-12a2.42,2.42,0,0,0-1.5.5,2.46,2.46,0,0,0-1.5-.5h-12a2.42,2.42,0,0,0-1.5.5,2.46,2.46,0,0,0-1.5-.5h-12a2.47,2.47,0,0,0-1.5.49,2.59,2.59,0,0,0-1.5-.5h-12a2.58,2.58,0,0,0-1.52.52,2.45,2.45,0,0,0-1.47-.52c-.74,0-1.12-.08-1.3-.38a.64.64,0,0,1-.08-.14h0a6.25,6.25,0,0,1-.11-1.53h0v-.11h0v-.51h0V434h0v0h0v-.12h0v-.12h0v-.58h0V426a2.5,2.5,0,0,1,0-3V411a2.5,2.5,0,0,1,0-3V396a2.5,2.5,0,0,1,0-3V381a2.5,2.5,0,0,1,0-3V366a2.5,2.5,0,0,1,0-3V351a2.49,2.49,0,0,1,0-3V336a2.47,2.47,0,0,1,0-3V321a2.47,2.47,0,0,1,0-3V306a2.47,2.47,0,0,1,0-3V291a2.53,2.53,0,0,0-.5-1.5,2.53,2.53,0,0,0,.5-1.5V276a2.53,2.53,0,0,0-.5-1.5,2.53,2.53,0,0,0,.5-1.5V261a2.5,2.5,0,0,0-.5-1.5,2.5,2.5,0,0,0,.5-1.49V246a2.5,2.5,0,0,0-.5-1.49,2.47,2.47,0,0,0,.5-1.49V231a2.53,2.53,0,0,0-.5-1.5,2.53,2.53,0,0,0,.5-1.5V216a2.5,2.5,0,0,0-.5-1.49,2.47,2.47,0,0,0,.5-1.49V201a2.53,2.53,0,0,0-.5-1.5,2.53,2.53,0,0,0,.5-1.5v-5.43h0v0h0v0h0v-.05h0v-.72h0c0-.24,0-.49,0-.74h0v-.05h0v0h0v0h0v0h0v0h0v0h0v0h0v0h0v0h0v0h0v0h0v0h0v0h0v0h0a5.29,5.29,0,0,0,0-.56h0c0-.27-.08-.56-.13-.9h0l0-.22h0l-.62,0-.44,0-1.26,0h-.36a2.49,2.49,0,0,1-3,0h-12a2.5,2.5,0,0,1-3,0h-9.38a4.85,4.85,0,0,1-1.46-.13h-.06c-.33-.13-.46-.39-.51-.89a2.42,2.42,0,0,0-.61-1.4,2.49,2.49,0,0,0,.58-1.6v-12a2.46,2.46,0,0,0-.5-1.5,2.46,2.46,0,0,0,.5-1.5v-12a2.43,2.43,0,0,0-.5-1.49,2.41,2.41,0,0,0,.5-1.49V144.33c0-.59,0-1.17,0-1.75a2.53,2.53,0,0,0-.5-1.5,2.53,2.53,0,0,0,.5-1.5v-12a2.53,2.53,0,0,0-.5-1.5,2.53,2.53,0,0,0,.5-1.5v-12a2.5,2.5,0,0,0-5,0h0v12a2.46,2.46,0,0,0,.5,1.5,2.46,2.46,0,0,0-.5,1.5v12a2.52,2.52,0,0,0,.49,1.5,2.52,2.52,0,0,0-.49,1.5v12a2.53,2.53,0,0,0,.5,1.5,2.53,2.53,0,0,0-.5,1.5v12a2.53,2.53,0,0,0,.5,1.5,2.53,2.53,0,0,0-.5,1.5v12a2.53,2.53,0,0,0,.62,1.65,2.52,2.52,0,0,0-.56,1.85,5.81,5.81,0,0,0,3.54,5,8.85,8.85,0,0,0,3.61.54h9.23a2.5,2.5,0,0,1,3,0h12a2.46,2.46,0,0,0,.94-.18V198a2.46,2.46,0,0,0,.5,1.5,2.46,2.46,0,0,0-.5,1.5v12a2.46,2.46,0,0,0,.5,1.5,2.46,2.46,0,0,0-.5,1.5v12a2.46,2.46,0,0,0,.5,1.5,2.46,2.46,0,0,0-.5,1.5v12a2.46,2.46,0,0,0,.5,1.5,2.46,2.46,0,0,0-.5,1.5v12a2.46,2.46,0,0,0,.5,1.5,2.46,2.46,0,0,0-.5,1.5v12a2.46,2.46,0,0,0,.5,1.5,2.46,2.46,0,0,0-.5,1.5v12a2.46,2.46,0,0,0,.5,1.5,2.46,2.46,0,0,0-.5,1.5v12a2.5,2.5,0,0,1,0,3v12a2.5,2.5,0,0,1,0,3v12a2.5,2.5,0,0,1,0,3v12a2.5,2.5,0,0,1,0,3v12a2.5,2.5,0,0,1,0,3v12a2.5,2.5,0,0,1,0,3v12a2.5,2.5,0,0,1,0,3v12a2.5,2.5,0,0,1,0,3v12a2.5,2.5,0,0,1,0,3v8.86a7.74,7.74,0,0,0,1,4.4,6.24,6.24,0,0,0,5.41,2.68h.06a2.5,2.5,0,0,1,3.05,0h12a2.52,2.52,0,0,0,1.5-.49,2.48,2.48,0,0,0,1.5.5h12a2.53,2.53,0,0,0,1.5-.5,2.48,2.48,0,0,0,1.5.5h12a2.53,2.53,0,0,0,1.5-.5,2.48,2.48,0,0,0,1.5.5h12a2.52,2.52,0,0,0,1.5-.49,2.47,2.47,0,0,0,1.5.49H578.1c.33,0,.72,0,1.17,0a5.82,5.82,0,0,0,4.11-2.05,2.5,2.5,0,0,0-.32-3.52,1.71,1.71,0,0,0-.27-.2,2.51,2.51,0,0,0,2-2.45v-12a2.5,2.5,0,0,1,0-3v-12a2.5,2.5,0,0,1,0-3v-12a2.5,2.5,0,0,1,0-3v-12a2.5,2.5,0,0,1,0-3v-12a2.5,2.5,0,0,1,0-3v-12a2.5,2.5,0,0,1,0-3v-12a2.54,2.54,0,0,1,0-3v-12a2.54,2.54,0,0,1,0-3v-12a2.54,2.54,0,0,1,0-3v-12a2.52,2.52,0,0,0-.49-1.5,2.52,2.52,0,0,0,.49-1.5v-12a2.52,2.52,0,0,0-.49-1.5,2.52,2.52,0,0,0,.49-1.5v-12a2.52,2.52,0,0,0-.49-1.5,2.52,2.52,0,0,0,.49-1.5v-12a2.52,2.52,0,0,0-.49-1.5,2.52,2.52,0,0,0,.49-1.5v-12a2.52,2.52,0,0,0-.49-1.5,2.52,2.52,0,0,0,.49-1.5v-12a2.52,2.52,0,0,0-.49-1.5,2.52,2.52,0,0,0,.49-1.5v-12a2.52,2.52,0,0,0-.49-1.5,2.52,2.52,0,0,0,.49-1.5v-.34h2.18a2.5,2.5,0,0,1,3,0h12a2.5,2.5,0,0,1,3,0h12a2.5,2.5,0,0,1,3,0h12a2.5,2.5,0,0,1,3,0h6.51c.53,0,1.14,0,1.8-.05a5.79,5.79,0,0,0,5.57-5.41c.08-.87.08-1.67.08-2.38v-.66a2.48,2.48,0,0,0-.5-1.5,2.53,2.53,0,0,0,.5-1.5v-12a2.48,2.48,0,0,0-.5-1.5,2.53,2.53,0,0,0,.5-1.5v-12a2.42,2.42,0,0,0-.5-1.5,2.46,2.46,0,0,0,.5-1.5v-12a2.42,2.42,0,0,0-.5-1.5,2.46,2.46,0,0,0,.5-1.5v-12a2.42,2.42,0,0,0-.5-1.5,2.53,2.53,0,0,0,.5-1.5V112.5a15,15,0,0,0,0-1.71,8.15,8.15,0,0,0-.35-1.71l0-.1a5,5,0,0,0-2.8-3.29,8,8,0,0,0-1.07-.38,2.57,2.57,0,0,0-.67-.09,2.53,2.53,0,0,0-1.75.71,2.46,2.46,0,0,0-1.91-.9h-12a2.47,2.47,0,0,0-1.5.49,2.53,2.53,0,0,0-1.5-.5h-12a2.53,2.53,0,0,0-1.5.5,2.48,2.48,0,0,0-1.5-.5h-12a2.53,2.53,0,0,0-1.5.5,2.48,2.48,0,0,0-1.5-.5H584.9a18.36,18.36,0,0,1-.18-2.23V97.53a2.5,2.5,0,0,0-.5-1.5,2.53,2.53,0,0,0,.5-1.5v-12a2.48,2.48,0,0,0-.5-1.5,2.53,2.53,0,0,0,.5-1.5v-12a2.53,2.53,0,0,0-.5-1.5,2.48,2.48,0,0,0,.5-1.5v-12a2.53,2.53,0,0,0-.5-1.5,2.48,2.48,0,0,0,.5-1.5v-12a2.53,2.53,0,0,0-.5-1.5,2.48,2.48,0,0,0,.5-1.5v-12a2.42,2.42,0,0,0-.5-1.5,2.46,2.46,0,0,0,.5-1.5v-12a2.48,2.48,0,0,0-.5-1.5,2.53,2.53,0,0,0,.5-1.5v-2c0-.66,0-1.37-.06-2.12a5.72,5.72,0,0,0-5.19-5.33C578.75-5,578-5,577.45-5h-5.58a2.53,2.53,0,0,0-1.5.5,2.53,2.53,0,0,0-1.5-.5h-12a2.53,2.53,0,0,0-1.5.5,2.53,2.53,0,0,0-1.5-.5Z"/><path class="cls-1" d="M361,273.53v-160c0-.76,0-1.53,0-2.3a.88.88,0,0,1,.89-.92,13.19,13.19,0,0,1,1.41-.06h71.42c2.37,0,2.41.05,2.42,2.34V433.84c0,.71,0,1.42,0,2.12a.86.86,0,0,1-.9.9c-.41,0-.83,0-1.24,0H363.21c-2.22,0-2.23,0-2.23-2.28V273.53Z"/><path class="cls-2" d="M403,105.24H391a2.5,2.5,0,0,1-3,0H376a2.5,2.5,0,0,1-3,0h-9.67a16.12,16.12,0,0,0-2,.1,5.87,5.87,0,0,0-4.6,3,2.5,2.5,0,0,0,.61,3.1,2.49,2.49,0,0,0-1.37,2.23v12a2.53,2.53,0,0,0,.5,1.5,2.53,2.53,0,0,0-.5,1.5v12a2.53,2.53,0,0,0,.5,1.5,2.53,2.53,0,0,0-.5,1.5v12a2.53,2.53,0,0,0,.5,1.5,2.53,2.53,0,0,0-.5,1.5v12a2.53,2.53,0,0,0,.5,1.5,2.53,2.53,0,0,0-.5,1.5v12a2.46,2.46,0,0,0,.5,1.5,2.46,2.46,0,0,0-.5,1.5v12a2.46,2.46,0,0,0,.5,1.5,2.46,2.46,0,0,0-.5,1.5v12a2.46,2.46,0,0,0,.5,1.5,2.46,2.46,0,0,0-.5,1.5v12a2.46,2.46,0,0,0,.5,1.5,2.46,2.46,0,0,0-.5,1.5v12a2.46,2.46,0,0,0,.5,1.5,2.46,2.46,0,0,0-.5,1.5v12a2.46,2.46,0,0,0,.5,1.5,2.46,2.46,0,0,0-.5,1.5v12a2.46,2.46,0,0,0,.5,1.5,2.46,2.46,0,0,0-.5,1.5v12a2.46,2.46,0,0,0,.5,1.5,2.46,2.46,0,0,0-.5,1.5v12a2.5,2.5,0,0,1,0,3v12a2.5,2.5,0,0,1,0,3v12a2.5,2.5,0,0,1,0,3v12a2.5,2.5,0,0,1,0,3v12a2.5,2.5,0,0,1,0,3v12a2.5,2.5,0,0,1,0,3v12a2.5,2.5,0,0,1,0,3v12a2.5,2.5,0,0,1,0,3v12a2.5,2.5,0,0,1,0,3v5.89c0,1.66,0,3.74,1.71,5.49s3.93,1.79,5.52,1.79h2.05a2.5,2.5,0,0,1,3,0h12a2.5,2.5,0,0,1,3,0h12a2.5,2.5,0,0,1,3,0h12a2.5,2.5,0,0,1,3,0h12a2.5,2.5,0,0,1,3,0h7a12.05,12.05,0,0,0,1.43-.06,5.83,5.83,0,0,0,5.4-5.53c.05-.78.05-1.52.05-2.18v-.77a2.5,2.5,0,0,1,0-3v-12a2.5,2.5,0,0,1,0-3v-12a2.5,2.5,0,0,1,0-3v-12a2.5,2.5,0,0,1,0-3v-12a2.5,2.5,0,0,1,0-3v-12a2.5,2.5,0,0,1,0-3v-12a2.5,2.5,0,0,1,0-3v-12a2.5,2.5,0,0,1,0-3v-12a2.5,2.5,0,0,1,0-3v-12a2.53,2.53,0,0,0-.5-1.5,2.53,2.53,0,0,0,.5-1.5v-12a2.53,2.53,0,0,0-.5-1.5,2.53,2.53,0,0,0,.5-1.5v-12a2.53,2.53,0,0,0-.5-1.5,2.53,2.53,0,0,0,.5-1.5v-12a2.46,2.46,0,0,0-.5-1.5,2.46,2.46,0,0,0,.5-1.5v-12a2.46,2.46,0,0,0-.5-1.5,2.46,2.46,0,0,0,.5-1.5v-12a2.46,2.46,0,0,0-.5-1.5,2.46,2.46,0,0,0,.5-1.5v-12a2.46,2.46,0,0,0-.5-1.5,2.46,2.46,0,0,0,.5-1.5v-12a2.46,2.46,0,0,0-.5-1.5,2.46,2.46,0,0,0,.5-1.5v-12a2.46,2.46,0,0,0-.5-1.5,2.46,2.46,0,0,0,.5-1.5v-12a2.46,2.46,0,0,0-.5-1.5,2.46,2.46,0,0,0,.5-1.5v-12a2.46,2.46,0,0,0-.5-1.5,2.46,2.46,0,0,0,.5-1.5v-12a2.46,2.46,0,0,0-.5-1.5,2.46,2.46,0,0,0,.5-1.5v-12a2.46,2.46,0,0,0-.5-1.5,2.46,2.46,0,0,0,.5-1.5v-2.79c0-1.62,0-3.82-1.84-5.59s-3.88-1.73-5.58-1.73h-5a2.53,2.53,0,0,0-1.5.5,2.48,2.48,0,0,0-1.5-.5h-12a2.53,2.53,0,0,0-1.5.5,2.48,2.48,0,0,0-1.5-.5Zm8.77,5a2.42,2.42,0,0,0,1.5-.5,2.46,2.46,0,0,0,1.5.5h12a2.41,2.41,0,0,0,1.49-.5,2.46,2.46,0,0,0,1.5.5h5.4c.91,0,1.41,0,1.68.31s.31.84.32,1.92h0v.08h0v.23h0v0h0v.54h0v.07h0v1.88a2.53,2.53,0,0,0,.5,1.5,2.53,2.53,0,0,0-.5,1.5v12a2.53,2.53,0,0,0,.5,1.5,2.53,2.53,0,0,0-.5,1.5v12a2.53,2.53,0,0,0,.5,1.5,2.53,2.53,0,0,0-.5,1.5v12a2.53,2.53,0,0,0,.5,1.5,2.53,2.53,0,0,0-.5,1.5v12a2.53,2.53,0,0,0,.5,1.5,2.53,2.53,0,0,0-.5,1.5v12a2.53,2.53,0,0,0,.5,1.5,2.53,2.53,0,0,0-.5,1.5v12a2.53,2.53,0,0,0,.5,1.5,2.53,2.53,0,0,0-.5,1.5v12a2.47,2.47,0,0,0,.5,1.49,2.5,2.5,0,0,0-.5,1.49v12a2.53,2.53,0,0,0,.5,1.5,2.53,2.53,0,0,0-.5,1.5v12a2.47,2.47,0,0,0,.5,1.49,2.5,2.5,0,0,0-.5,1.49v12a2.53,2.53,0,0,0,.5,1.5,2.53,2.53,0,0,0-.5,1.5v12a2.53,2.53,0,0,0,.5,1.5,2.53,2.53,0,0,0-.5,1.5v12a2.53,2.53,0,0,0,.5,1.5,2.53,2.53,0,0,0-.5,1.5v12a2.5,2.5,0,0,1,0,3v12a2.5,2.5,0,0,1,0,3v12a2.5,2.5,0,0,1,0,3v12a2.5,2.5,0,0,1,0,3v12a2.5,2.5,0,0,1,0,3v12a2.5,2.5,0,0,1,0,3v12a2.53,2.53,0,0,0,.5,1.5,2.5,2.5,0,0,0-.5,1.49v12a2.49,2.49,0,0,1,0,3v12a2.5,2.5,0,0,1,0,3v.53h0v0h0v.73h0q0,.61,0,1.23h0v0h0a.86.86,0,0,1-.9.9c-.31,0-.63,0-.94,0h-7a2.49,2.49,0,0,1-3,0h-12a2.53,2.53,0,0,0-1.5.5,2.5,2.5,0,0,0-1.49-.5h-12a2.5,2.5,0,0,1-3,0h-12a2.49,2.49,0,0,1-3,0h-12a2.5,2.5,0,0,0-1.49.5,2.53,2.53,0,0,0-1.5-.5h-2.05c-2.22,0-2.23,0-2.23-2.28h0v-5.89a2.5,2.5,0,0,1,0-3v-12a2.53,2.53,0,0,0-.5-1.5,2.5,2.5,0,0,0,.5-1.49v-12a2.47,2.47,0,0,0-.5-1.49,2.53,2.53,0,0,0,.5-1.5v-12a2.5,2.5,0,0,1,0-3v-12a2.47,2.47,0,0,1,0-3v-12a2.47,2.47,0,0,1,0-3v-12a2.47,2.47,0,0,1,0-3v-12a2.47,2.47,0,0,1,0-3v-12a2.47,2.47,0,0,1,0-3v-12a2.5,2.5,0,0,0-.5-1.5,2.53,2.53,0,0,0,.5-1.5v-12a2.53,2.53,0,0,0-.5-1.5,2.53,2.53,0,0,0,.5-1.5v-12a2.53,2.53,0,0,0-.5-1.5,2.53,2.53,0,0,0,.5-1.5v-12a2.5,2.5,0,0,0-.5-1.5,2.53,2.53,0,0,0,.5-1.5v-12a2.53,2.53,0,0,0-.5-1.5,2.53,2.53,0,0,0,.5-1.5v-12a2.53,2.53,0,0,0-.5-1.5,2.5,2.5,0,0,0,.5-1.49v-12a2.47,2.47,0,0,0-.5-1.49,2.53,2.53,0,0,0,.5-1.5v-12a2.47,2.47,0,0,0-.5-1.49,2.53,2.53,0,0,0,.5-1.5v-12a2.47,2.47,0,0,0-.5-1.49,2.5,2.5,0,0,0,.5-1.49v-12a2.53,2.53,0,0,0-.5-1.5,2.53,2.53,0,0,0,.5-1.5v-12a2.53,2.53,0,0,0-.5-1.5,2.5,2.5,0,0,0,.5-1.49v-12a2.53,2.53,0,0,0-.5-1.5,2.53,2.53,0,0,0,.5-1.5v-12a2.46,2.46,0,0,0-.9-1.91,2.62,2.62,0,0,0,1.08-1.06.79.79,0,0,1,.59-.41h.17a13.19,13.19,0,0,1,1.41-.06H373a2.5,2.5,0,0,1,3,0h12a2.5,2.5,0,0,1,3,0h20.77Z"/><path class="cls-1" d="M437.18,38.38q0,18,0,36.06c0,2.43,0,2.41-2.46,2.41h-71.4c-.53,0-1.06,0-1.58,0a.78.78,0,0,1-.7-.7,4,4,0,0,1-.06-.7c0-.47,0-.94,0-1.41v-71c0-.65,0-1.3,0-1.95s.31-.9,1-1c.41,0,.82,0,1.24,0H435c2.15,0,2.15,0,2.15,2.15Q437.19,20.27,437.18,38.38Z"/><path class="cls-2" d="M362.8-5h0c-.32,0-.71,0-1.14,0A5.84,5.84,0,0,0,356,.61c0,.74,0,1.43,0,2v8a2.53,2.53,0,0,0,.5,1.5,2.53,2.53,0,0,0-.5,1.5v12a2.53,2.53,0,0,0,.5,1.5,2.53,2.53,0,0,0-.5,1.5v12a2.53,2.53,0,0,0,.5,1.5,2.53,2.53,0,0,0-.5,1.5v12a2.53,2.53,0,0,0,.5,1.5,2.53,2.53,0,0,0-.5,1.5v12a2.53,2.53,0,0,0,.5,1.5,2.53,2.53,0,0,0-.5,1.5v.6c0,.43,0,.86,0,1.3a10.41,10.41,0,0,0,.12,1.38,5.76,5.76,0,0,0,5.09,4.87,20.63,20.63,0,0,0,2.12.08h6.88a2.46,2.46,0,0,0,1.5-.5,2.42,2.42,0,0,0,1.5.5h12a2.46,2.46,0,0,0,1.5-.5,2.42,2.42,0,0,0,1.5.5h12a2.46,2.46,0,0,0,1.5-.5,2.42,2.42,0,0,0,1.5.5h12a2.53,2.53,0,0,0,1.5-.5,2.48,2.48,0,0,0,1.5.5h12a2.53,2.53,0,0,0,1.5-.5,2.48,2.48,0,0,0,1.5.5h1.72c1.64,0,3.88,0,5.65-1.92,1.62-1.74,1.62-3.73,1.62-5.49V68.37a2.48,2.48,0,0,0-.5-1.5,2.52,2.52,0,0,0,.49-1.5v-12a2.46,2.46,0,0,0-.5-1.5,2.46,2.46,0,0,0,.5-1.5v-12a2.45,2.45,0,0,0-.51-1.5,2.5,2.5,0,0,0,.51-1.51v-12a2.53,2.53,0,0,0-.5-1.5,2.53,2.53,0,0,0,.5-1.5v-12a2.53,2.53,0,0,0-.5-1.5,2.52,2.52,0,0,0,.49-1.5V2.15c0-1.55,0-3.68-1.74-5.42S436.57-5,435-5h-4.91a2.53,2.53,0,0,0-1.5.5,2.53,2.53,0,0,0-1.5-.5h-12a2.53,2.53,0,0,0-1.5.5,2.53,2.53,0,0,0-1.5-.5h-12a2.53,2.53,0,0,0-1.5.5,2.53,2.53,0,0,0-1.5-.5h-12a2.53,2.53,0,0,0-1.5.5,2.53,2.53,0,0,0-1.5-.5h-12a2.53,2.53,0,0,0-1.5.5,2.53,2.53,0,0,0-1.5-.5H362.8Zm22.31,5h12a2.53,2.53,0,0,0,1.5-.5,2.53,2.53,0,0,0,1.5.5h12a2.53,2.53,0,0,0,1.5-.5,2.53,2.53,0,0,0,1.5.5h12a2.5,2.5,0,0,0,1.5-.5,2.53,2.53,0,0,0,1.5.5H435c1.07,0,1.61,0,1.88.27s.27.81.27,1.88V5.38a2.56,2.56,0,0,0,.5,1.49,2.52,2.52,0,0,0-.49,1.5v12a2.46,2.46,0,0,0,.5,1.5,2.43,2.43,0,0,0-.5,1.49v12a2.47,2.47,0,0,0,.5,1.51,2.44,2.44,0,0,0-.5,1.5h0v.32c0,3,0,6.06,0,9.09v2.59a2.56,2.56,0,0,0,.5,1.49,2.53,2.53,0,0,0-.5,1.5v12a2.59,2.59,0,0,0,.5,1.5,2.5,2.5,0,0,0-.49,1.5v6.07a7.65,7.65,0,0,1-.1,1.74h0a.87.87,0,0,1-.15.25c-.23.25-.65.3-1.4.32h-2.32a2.49,2.49,0,0,1-3,0h-12a2.41,2.41,0,0,0-1.49.5,2.46,2.46,0,0,0-1.5-.5h-12a2.49,2.49,0,0,1-3,0h-12a2.54,2.54,0,0,0-1.49.5,2.59,2.59,0,0,0-1.5-.5h-12a2.48,2.48,0,0,0-1.5.5,2.53,2.53,0,0,0-1.5-.5h-8.45a.78.78,0,0,1-.7-.7,4,4,0,0,1-.06-.7h0v0h0v0h0c0-.36,0-.71,0-1.07v-.53a2.53,2.53,0,0,0-.5-1.5,2.5,2.5,0,0,0,.5-1.49v-12a2.53,2.53,0,0,0-.5-1.5,2.53,2.53,0,0,0,.5-1.5v-12a2.53,2.53,0,0,0-.5-1.5,2.53,2.53,0,0,0,.5-1.5v-12a2.53,2.53,0,0,0-.5-1.5,2.53,2.53,0,0,0,.5-1.5v-12a2.46,2.46,0,0,0-.5-1.5,2.5,2.5,0,0,0,.5-1.49V2.93h0V2.76c0-.49,0-1,0-1.45h0v0h0V1.22h0v0h0V1c.05-.67.31-.9,1-1,.26,0,.52,0,.78,0h4.3a2.53,2.53,0,0,0,1.5-.5,2.53,2.53,0,0,0,1.5.5h12a2.53,2.53,0,0,0,1.5-.5,2.53,2.53,0,0,0,1.5.5Z"/></svg>