<svg id="Layer_2" data-name="Layer 2" xmlns="http://www.w3.org/2000/svg" viewBox="0 0 850.77 436.89"><defs><style>.cls-1{fill:#fff;}</style></defs><path class="cls-1" d="M850.77,188.43c-.7,0-1.41-.09-2.11-.09H789.42a17.45,17.45,0,0,0-1.77.06.93.93,0,0,0-.92.9,8.48,8.48,0,0,0-.06.88V433.33c0,.71,0,1.41,0,2.12,0,1.3-.17,1.43-1.4,1.47H711.35c-1-.05-1.19-.22-1.23-1.29,0-.71,0-1.41,0-2.12V192.12c0-.71,0-1.42,0-2.12a6.32,6.32,0,0,0-.27-1.1,5.2,5.2,0,0,0-2.37-.25H680.21c-.53,0-1.07,0-1.59,0a.78.78,0,0,1-.72-.68,4.05,4.05,0,0,1-.07-.7c0-.47,0-.94,0-1.41V113c0-.65,0-1.3,0-1.94a.87.87,0,0,1,.91-.9c.52,0,1.06,0,1.59,0q13.6,0,27.23,0a4.21,4.21,0,0,0,2.2-.28,10.71,10.71,0,0,0,.23-1.29c0-.65,0-1.3,0-2V3.1c0-.71,0-1.42,0-2.12s.31-.9,1-1c.41,0,.83,0,1.24,0h72.32c2,0,2,0,2,2V107.2c0,.65,0,1.3,0,1.94a.83.83,0,0,0,.8.8,11.1,11.1,0,0,0,1.41.07h60.3c.53,0,1-.07,1.58-.1Z"/><path class="cls-1" d="M77,133.36c.7.26,1.2-.11,1.72-.36,3.08-1.48,6.17-2.94,9.23-4.46a201.42,201.42,0,0,1,18.74-8.26,166.8,166.8,0,0,1,26.12-7.49c4.16-.82,8.35-1.44,12.55-2,1.86-.24,3.75-.29,5.63-.47a161.67,161.67,0,0,1,18.55-.27c2.35.06,4.69.34,7,.57q3.25.33,6.49.78c2.5.36,5,.73,7.49,1.19a206,206,0,0,1,21.62,5.18,177.86,177.86,0,0,1,22,8.16,155,155,0,0,1,24.44,13.78A145.81,145.81,0,0,1,277.15,155a152.62,152.62,0,0,1,21.54,26.15,183.35,183.35,0,0,1,17.89,35.42,167.4,167.4,0,0,1,6.57,20.88,147.58,147.58,0,0,1,2.74,14.74c.46,3.45.78,6.9,1.07,10.36.5,6.12.32,12.25.22,18.38,0,2.34-.34,4.69-.57,7s-.49,4.44-.74,6.66c-.52,4.45-1.35,8.84-2.31,13.21a166.71,166.71,0,0,1-37,73.59,158.63,158.63,0,0,1-33.19,29,169.38,169.38,0,0,1-31.91,16.26,157.73,157.73,0,0,1-23.68,7c-3.8.8-7.62,1.49-11.49,1.92-2.92.33-5.84.73-8.77,1-5.52.44-11.06.51-16.6.47-4.54,0-9.06-.28-13.58-.69-4.11-.36-8.19-.9-12.26-1.57a150,150,0,0,1-15.5-3.46A155.14,155.14,0,0,1,88,418.7,172.5,172.5,0,0,1,51,392.2a158,158,0,0,1-24.93-29.73,160.19,160.19,0,0,1-18-37.91A164.7,164.7,0,0,1,3,304.75c-.53-2.77-.81-5.58-1.2-8.38-.55-3.9-.85-7.84-1.63-11.71A8.4,8.4,0,0,1,0,283.43c0-.59,0-1.18,0-1.77V3c0-.7,0-1.41,0-2.12A.74.74,0,0,1,.8.05,13.29,13.29,0,0,1,2.21,0H74.53c.64,0,1.28,0,2,.07a6.53,6.53,0,0,1,.29,1.08,13.26,13.26,0,0,1,0,1.41q0,64.29,0,128.56A6,6,0,0,0,77,133.36ZM165,359.1c1.82-.11,5-.19,8.05-.52a82.63,82.63,0,0,0,11.11-2A86.17,86.17,0,0,0,236,319.21a83.35,83.35,0,0,0,10.17-23A81.66,81.66,0,0,0,248.69,283c.29-2.88.53-5.75.56-8.64,0-1.94-.19-3.88-.23-5.82a65.1,65.1,0,0,0-1.23-10.51,83.5,83.5,0,0,0-10.72-28.26,85.88,85.88,0,0,0-41.19-35.49,82,82,0,0,0-19.53-5.38,90.2,90.2,0,0,0-9.13-.93,84.85,84.85,0,0,0-20.72,1.68,84,84,0,0,0-18.9,6.23,86.2,86.2,0,0,0-43.31,45.54,83.88,83.88,0,0,0-5.42,20.24A93.25,93.25,0,0,0,78,273.13a84.35,84.35,0,0,0,.9,12.49,79.72,79.72,0,0,0,3.68,15.43,84.85,84.85,0,0,0,33.46,43.49C130.41,354.21,146.33,359,165,359.1Z"/><path class="cls-1" d="M502.87,188.68c-.92,0-1.62-.07-2.32-.07q-13.69,0-27.4,0c-2.46,0-2.4,0-2.4-2.48q0-36.78,0-73.55a17.45,17.45,0,0,1,.06-1.77.74.74,0,0,1,.7-.69c.52,0,1.05-.06,1.58-.06q13.62,0,27.23,0a5.81,5.81,0,0,0,2.35-.22,6.21,6.21,0,0,0,.22-1c0-.71,0-1.41,0-2.12V2.79c0-.65,0-1.3,0-1.95a.76.76,0,0,1,.78-.79c.52,0,1,0,1.58,0h72.14c.53,0,1.06,0,1.59.06a.71.71,0,0,1,.67.7c0,.59,0,1.18,0,1.77q0,13.35,0,26.7,0,36.78,0,73.56c0,1.84.36,3.62.5,5.44a9.21,9.21,0,0,0,.4,1.54,7.25,7.25,0,0,0,1.08.23c.65,0,1.3,0,1.94,0h57.64a5.2,5.2,0,0,1,2.35.23,5.86,5.86,0,0,1,.24,1c0,.53,0,1.06,0,1.59v72.68c0,.64,0,1.29-.06,1.94a.84.84,0,0,1-.92.86c-.65.05-1.3,0-1.95,0H583.16c-.59,0-1.18,0-1.77,0-1.38,0-1.57.25-1.62,1.7,0,.24,0,.47,0,.71,0,.59,0,1.18,0,1.77V433.7c0,.77,0,1.53,0,2.3s-.28.86-.87.9c-.41,0-.82,0-1.24,0H505.32c-2.18,0-2.19,0-2.21-2.13,0-.65,0-1.29,0-1.94V192.55c0-.71,0-1.42,0-2.12C503.07,189.91,503,189.39,502.87,188.68Z"/><path class="cls-1" d="M361,273.53v-160c0-.76,0-1.53,0-2.3a.88.88,0,0,1,.89-.92,13.19,13.19,0,0,1,1.41-.06h71.42c2.37,0,2.41.05,2.42,2.34V433.84c0,.71,0,1.42,0,2.12a.86.86,0,0,1-.9.9c-.41,0-.83,0-1.24,0H363.21c-2.22,0-2.23,0-2.23-2.28V273.53Z"/><path class="cls-1" d="M437.18,38.38q0,18,0,36.06c0,2.43,0,2.41-2.46,2.41h-71.4c-.53,0-1.06,0-1.58,0a.78.78,0,0,1-.7-.7,4,4,0,0,1-.06-.7c0-.47,0-.94,0-1.41v-71c0-.65,0-1.3,0-1.95s.31-.9,1-1c.41,0,.82,0,1.24,0H435c2.15,0,2.15,0,2.15,2.15Q437.19,20.27,437.18,38.38Z"/></svg>